<svg width="39" height="24" viewBox="0 0 39 24" fill="none" xmlns="http://www.w3.org/2000/svg">
<path fill-rule="evenodd" clip-rule="evenodd" d="M34.2858 0H2.28572C1.02857 0 0 1.02857 0 2.28572V21.7143C0 22.9714 1.02857 24 2.28572 24H34.2858C35.5428 24 36.5715 22.9714 36.5715 21.7143V2.28572C36.5715 1.02857 35.5428 0 34.2858 0Z" fill="#3498D8"/>
<path fill-rule="evenodd" clip-rule="evenodd" d="M7.65634 12.3424H9.48493L8.57062 10.0567L7.65634 12.3424ZM33.1419 7.99951H28.4564L27.3135 9.25666L26.2849 7.99951H16.3421L15.4278 10.0567L14.5135 7.99951H10.5135V8.91382L10.0563 7.99951H6.62776L3.31348 15.9995H7.3135L7.77064 14.7424H8.91349L9.37063 15.9995H13.8278V15.0852L14.1706 15.9995H16.4563L16.7992 14.9709V15.9995H25.9421L27.0849 14.7424L28.1135 15.9995H32.7993L29.8278 11.9995L33.1419 7.99951ZM19.3135 14.8567H18.0563V10.3995L16.1135 14.8567H14.9706L13.0278 10.3995V14.8567H10.3992L9.94207 13.5995H7.1992L6.74206 14.8567H5.25634L7.65634 9.14239H9.5992L11.7706 14.5138V9.14239H13.9421L15.6563 13.0281L17.2563 9.14239H19.4278V14.8567H19.3135ZM30.6279 14.8567H28.9135L27.4278 12.9138L25.7135 14.8567H20.5706V9.14239H25.8278L27.4278 10.971L29.1421 9.14239H30.7419L28.2278 11.9995L30.6279 14.8567ZM21.8278 10.2852V11.3138H24.6849V12.4567H21.8278V13.5995H25.0278L26.5135 11.8852L25.142 10.2852H21.8278Z" fill="white"/>
</svg>
