<svg width="13" height="8" viewBox="0 0 13 8" fill="none"
    xmlns="http://www.w3.org/2000/svg">
    <path fill-rule="evenodd" clip-rule="evenodd" d="M11.4286 0H0.761905C0.342857 0 0 0.342857 0 0.761905V7.2381C0 7.65714 0.342857 8 0.761905 8H11.4286C11.8476 8 12.1905 7.65714 12.1905 7.2381V0.761905C12.1905 0.342857 11.8476 0 11.4286 0Z" fill="#3498D8"/>
    <path fill-rule="evenodd" clip-rule="evenodd" d="M2.55211 4.11412H3.16164L2.85687 3.35222L2.55211 4.11412ZM11.0473 2.6665H9.48545L9.10449 3.08555L8.76164 2.6665H5.44735L5.14259 3.35222L4.83783 2.6665H3.50449V2.97127L3.35211 2.6665H2.20925L1.10449 5.33317H2.43783L2.59021 4.91412H2.97116L3.12354 5.33317H4.60925V5.02841L4.72354 5.33317H5.48544L5.59973 4.99031V5.33317H8.64735L9.0283 4.91412L9.37116 5.33317H10.9331L9.94259 3.99984L11.0473 2.6665ZM6.43783 4.95222H6.01878V3.4665L5.37116 4.95222H4.99021L4.34259 3.4665V4.95222H3.4664L3.31402 4.53317H2.39973L2.24735 4.95222H1.75211L2.55211 3.04746H3.19973L3.92354 4.83793V3.04746H4.64735L5.21878 4.34269L5.75211 3.04746H6.47592V4.95222H6.43783ZM10.2093 4.95222H9.63783L9.14259 4.3046L8.57116 4.95222H6.85687V3.04746H8.60925L9.14259 3.65698L9.71402 3.04746H10.2473L9.40926 3.99984L10.2093 4.95222ZM7.27592 3.42841V3.77127H8.2283V4.15222H7.27592V4.53317H8.34259L8.83783 3.96174L8.38068 3.42841H7.27592Z" fill="white"/>
</svg>
