<svg width="29" height="24" viewBox="0 0 29 24" fill="none" xmlns="http://www.w3.org/2000/svg">
<g clip-path="url(#clip0_5_106)">
<path d="M27.4242 12.5715C27.4242 15.6026 26.0445 18.5094 23.5888 20.6528C21.1331 22.796 17.8026 24.0001 14.3296 24.0001C10.8567 24.0001 7.52607 22.796 5.07037 20.6528C2.61466 18.5094 1.23506 15.6026 1.23506 12.5715C1.23506 9.54047 2.61466 6.63358 5.07037 4.4903C7.52607 2.34702 10.8567 1.14294 14.3296 1.14294C17.8026 1.14294 21.1331 2.34702 23.5888 4.4903C26.0445 6.63358 27.4242 9.54047 27.4242 12.5715Z" fill="#2980B9"/>
<path d="M27.4242 11.4286C27.4242 14.4596 26.0445 17.3666 23.5888 19.5098C21.1331 21.6531 17.8026 22.8571 14.3296 22.8571C10.8567 22.8571 7.52607 21.6531 5.07037 19.5098C2.61466 17.3666 1.23506 14.4596 1.23506 11.4286C1.23506 8.39752 2.61466 5.49062 5.07037 3.34734C7.52607 1.20408 10.8567 0 14.3296 0C17.8026 0 21.1331 1.20408 23.5888 3.34734C26.0445 5.49062 27.4242 8.39752 27.4242 11.4286Z" fill="#3498DB"/>
<path d="M13.0202 5.71448V8.00019H15.6391V5.71448H13.0202ZM11.7107 10.2859L10.4013 11.4288H13.0202V18.2859H10.4013V19.4288H11.7107H16.9485H18.2579V18.2859H15.6391V10.2859H11.7107Z" fill="#2980B9"/>
<path d="M13.0202 4.57147V6.85718H15.6391V4.57147H13.0202ZM11.7107 9.1429L10.4013 10.2858H13.0202V17.1429H10.4013V18.2857H11.7107H16.9485H18.2579V17.1429H15.6391V9.1429H11.7107Z" fill="#ECF0F1"/>
</g>
<defs>
<clipPath id="clip0_5_106">
<rect width="28.8" height="24" fill="white"/>
</clipPath>
</defs>
</svg>
