<svg width="18" height="15" viewBox="0 0 18 15" fill="none"
    xmlns="http://www.w3.org/2000/svg">
    <path d="M17.1401 7.85721C17.1401 9.75162 16.2778 11.5684 14.743 12.908C13.2082 14.2475 11.1266 15.0001 8.956 15.0001C6.78545 15.0001 4.70379 14.2475 3.16898 12.908C1.63416 11.5684 0.771912 9.75162 0.771912 7.85721C0.771912 5.96281 1.63416 4.146 3.16898 2.80645C4.70379 1.4669 6.78545 0.714355 8.956 0.714355C11.1266 0.714355 13.2082 1.4669 14.743 2.80645C16.2778 4.146 17.1401 5.96281 17.1401 7.85721Z" fill="#2980B9"/>
    <path d="M17.1401 7.14286C17.1401 9.03726 16.2778 10.8541 14.743 12.1936C13.2082 13.5332 11.1266 14.2857 8.956 14.2857C6.78545 14.2857 4.70379 13.5332 3.16898 12.1936C1.63416 10.8541 0.771912 9.03726 0.771912 7.14286C0.771912 5.24845 1.63416 3.43164 3.16898 2.09209C4.70379 0.752549 6.78545 0 8.956 0C11.1266 0 13.2082 0.752549 14.743 2.09209C16.2778 3.43164 17.1401 5.24845 17.1401 7.14286Z" fill="#3498DB"/>
    <path d="M8.13761 3.57153V5.0001H9.77443V3.57153H8.13761ZM7.3192 6.42868L6.50079 7.14296H8.13761V11.4287H6.50079V12.143H7.3192H10.5928H11.4112V11.4287H9.77443V6.42868H7.3192Z" fill="#2980B9"/>
    <path d="M8.13761 2.85718V4.28575H9.77443V2.85718H8.13761ZM7.3192 5.71432L6.50079 6.42861H8.13761V10.7143H6.50079V11.4286H7.3192H10.5928H11.4112V10.7143H9.77443V5.71432H7.3192Z" fill="#ECF0F1"/>
</svg>
