<svg width="26" height="24" viewBox="0 0 26 24" fill="none" xmlns="http://www.w3.org/2000/svg">
<path fill-rule="evenodd" clip-rule="evenodd" d="M1.26316 7.57894C1.26316 4.78844 3.5253 2.52631 6.31579 2.52631H18.9474C21.7378 2.52631 24 4.78844 24 7.57894V17.6842C24 20.4746 21.7378 22.7368 18.9474 22.7368H6.31579C3.5253 22.7368 1.26316 20.4746 1.26316 17.6842V7.57894ZM6.31579 5.05262C4.92054 5.05262 3.78947 6.18369 3.78947 7.57894V17.6842C3.78947 19.0795 4.92054 20.2105 6.31579 20.2105H18.9474C20.3427 20.2105 21.4737 19.0795 21.4737 17.6842V7.57894C21.4737 6.18369 20.3427 5.05262 18.9474 5.05262H6.31579Z" fill="#00A3FF" stroke="#EDF7FF"/>
<path fill-rule="evenodd" clip-rule="evenodd" d="M6.94737 0C7.29618 0 7.57895 0.424156 7.57895 0.947369V2.84211C7.57895 3.36532 7.29618 3.78947 6.94737 3.78947C6.59856 3.78947 6.31579 3.36532 6.31579 2.84211V0.947369C6.31579 0.424156 6.59856 0 6.94737 0Z" fill="#00A3FF"/>
<path fill-rule="evenodd" clip-rule="evenodd" d="M18.3158 0C18.6645 0 18.9474 0.424156 18.9474 0.947369V2.84211C18.9474 3.36532 18.6645 3.78947 18.3158 3.78947C17.967 3.78947 17.6842 3.36532 17.6842 2.84211V0.947369C17.6842 0.424156 17.967 0 18.3158 0Z" fill="#00A3FF"/>
<path d="M8.8421 8.84208C8.8421 9.53972 8.27656 10.1052 7.57895 10.1052C6.88133 10.1052 6.31579 9.53972 6.31579 8.84208C6.31579 8.14446 6.88133 7.57892 7.57895 7.57892C8.27656 7.57892 8.8421 8.14446 8.8421 8.84208Z" fill="#00A3FF"/>
<path d="M13.8947 8.84208C13.8947 9.53972 13.3292 10.1052 12.6316 10.1052C11.9339 10.1052 11.3684 9.53972 11.3684 8.84208C11.3684 8.14446 11.9339 7.57892 12.6316 7.57892C13.3292 7.57892 13.8947 8.14446 13.8947 8.84208Z" fill="#00A3FF"/>
<path d="M18.9474 8.84208C18.9474 9.53972 18.3819 10.1052 17.6842 10.1052C16.9866 10.1052 16.4211 9.53972 16.4211 8.84208C16.4211 8.14446 16.9866 7.57892 17.6842 7.57892C18.3819 7.57892 18.9474 8.14446 18.9474 8.84208Z" fill="#00A3FF"/>
<path d="M8.8421 13.8947C8.8421 14.5924 8.27656 15.1579 7.57895 15.1579C6.88133 15.1579 6.31579 14.5924 6.31579 13.8947C6.31579 13.1971 6.88133 12.6316 7.57895 12.6316C8.27656 12.6316 8.8421 13.1971 8.8421 13.8947Z" fill="#00A3FF"/>
</svg>
