<svg width="20" height="19" viewBox="0 0 20 19" fill="none" xmlns="http://www.w3.org/2000/svg">
<path fill-rule="evenodd" clip-rule="evenodd" d="M1 6C1 3.79086 2.79086 2 5 2H15C17.2091 2 19 3.79086 19 6V14C19 16.2091 17.2091 18 15 18H5C2.79086 18 1 16.2091 1 14V6ZM5 4C3.89543 4 3 4.89543 3 6V14C3 15.1046 3.89543 16 5 16H15C16.1046 16 17 15.1046 17 14V6C17 4.89543 16.1046 4 15 4H5Z" fill="#00A3FF" stroke="#EDF7FF"/>
<path fill-rule="evenodd" clip-rule="evenodd" d="M5.5 0C5.77614 0 6 0.33579 6 0.75V2.25C6 2.66421 5.77614 3 5.5 3C5.22386 3 5 2.66421 5 2.25V0.75C5 0.33579 5.22386 0 5.5 0Z" fill="#00A3FF"/>
<path fill-rule="evenodd" clip-rule="evenodd" d="M14.5 0C14.7761 0 15 0.33579 15 0.75V2.25C15 2.66421 14.7761 3 14.5 3C14.2239 3 14 2.66421 14 2.25V0.75C14 0.33579 14.2239 0 14.5 0Z" fill="#00A3FF"/>
<path d="M7 7C7 7.5523 6.55228 8 6 8C5.44772 8 5 7.5523 5 7C5 6.44772 5.44772 6 6 6C6.55228 6 7 6.44772 7 7Z" fill="#00A3FF"/>
<path d="M11 7C11 7.5523 10.5523 8 10 8C9.4477 8 9 7.5523 9 7C9 6.44772 9.4477 6 10 6C10.5523 6 11 6.44772 11 7Z" fill="#00A3FF"/>
<path d="M15 7C15 7.5523 14.5523 8 14 8C13.4477 8 13 7.5523 13 7C13 6.44772 13.4477 6 14 6C14.5523 6 15 6.44772 15 7Z" fill="#00A3FF"/>
<path d="M7 11C7 11.5523 6.55228 12 6 12C5.44772 12 5 11.5523 5 11C5 10.4477 5.44772 10 6 10C6.55228 10 7 10.4477 7 11Z" fill="#00A3FF"/>
</svg>
