<svg width="9" height="9" viewBox="0 0 9 9" fill="none"
    xmlns="http://www.w3.org/2000/svg">
    <mask id="path-1-inside-1_10_1675" fill="white">
        <path fill-rule="evenodd" clip-rule="evenodd" d="M3.76923 0.8H8C8.11046 0.8 8.2 0.889542 8.2 1V5.23077C8.2 5.34123 8.11046 5.43077 8 5.43077H6.23077V3.76923C6.23077 3.21695 5.78305 2.76923 5.23077 2.76923H3.56923V0.999999C3.56923 0.889543 3.65877 0.8 3.76923 0.8ZM2.76923 2.76923V0.999999C2.76923 0.447715 3.21695 0 3.76923 0H8C8.55229 0 9 0.447715 9 1V5.23077C9 5.78305 8.55228 6.23077 8 6.23077H6.23077V8C6.23077 8.55229 5.78305 9 5.23077 9H0.999999C0.447715 9 0 8.55229 0 8V3.76923C0 3.21695 0.447715 2.76923 1 2.76923H2.76923Z"/>
    </mask>
    <path fill-rule="evenodd" clip-rule="evenodd" d="M3.76923 0.8H8C8.11046 0.8 8.2 0.889542 8.2 1V5.23077C8.2 5.34123 8.11046 5.43077 8 5.43077H6.23077V3.76923C6.23077 3.21695 5.78305 2.76923 5.23077 2.76923H3.56923V0.999999C3.56923 0.889543 3.65877 0.8 3.76923 0.8ZM2.76923 2.76923V0.999999C2.76923 0.447715 3.21695 0 3.76923 0H8C8.55229 0 9 0.447715 9 1V5.23077C9 5.78305 8.55228 6.23077 8 6.23077H6.23077V8C6.23077 8.55229 5.78305 9 5.23077 9H0.999999C0.447715 9 0 8.55229 0 8V3.76923C0 3.21695 0.447715 2.76923 1 2.76923H2.76923Z" fill="white"/>
    <path d="M6.23077 5.43077H5.43077V6.23077H6.23077V5.43077ZM3.56923 2.76923H2.76923V3.56923H3.56923V2.76923ZM2.76923 2.76923V3.56923H3.56923V2.76923H2.76923ZM6.23077 6.23077V5.43077H5.43077V6.23077H6.23077ZM8 0H3.76923V1.6H8V0ZM9 1C9 0.447713 8.55228 0 8 0V1.6C7.66863 1.6 7.4 1.33137 7.4 1H9ZM9 5.23077V1H7.4V5.23077H9ZM8 6.23077C8.55229 6.23077 9 5.78305 9 5.23077H7.4C7.4 4.8994 7.66863 4.63077 8 4.63077V6.23077ZM6.23077 6.23077H8V4.63077H6.23077V6.23077ZM5.43077 3.76923V5.43077H7.03077V3.76923H5.43077ZM5.23077 3.56923C5.34123 3.56923 5.43077 3.65877 5.43077 3.76923H7.03077C7.03077 2.77512 6.22488 1.96923 5.23077 1.96923V3.56923ZM3.56923 3.56923H5.23077V1.96923H3.56923V3.56923ZM2.76923 0.999999V2.76923H4.36923V0.999999H2.76923ZM3.76923 0C3.21695 0 2.76923 0.447715 2.76923 0.999999H4.36923C4.36923 1.33137 4.1006 1.6 3.76923 1.6V0ZM1.96923 0.999999V2.76923H3.56923V0.999999H1.96923ZM3.76923 -0.8C2.77512 -0.8 1.96923 0.00588621 1.96923 0.999999H3.56923C3.56923 0.889543 3.65877 0.8 3.76923 0.8V-0.8ZM8 -0.8H3.76923V0.8H8V-0.8ZM9.8 1C9.8 0.0058876 8.99411 -0.8 8 -0.8V0.8C8.11046 0.8 8.2 0.889543 8.2 1H9.8ZM9.8 5.23077V1H8.2V5.23077H9.8ZM8 7.03077C8.99411 7.03077 9.8 6.22488 9.8 5.23077H8.2C8.2 5.34123 8.11046 5.43077 8 5.43077V7.03077ZM6.23077 7.03077H8V5.43077H6.23077V7.03077ZM5.43077 6.23077V8H7.03077V6.23077H5.43077ZM5.43077 8C5.43077 8.11046 5.34123 8.2 5.23077 8.2V9.8C6.22488 9.8 7.03077 8.99411 7.03077 8H5.43077ZM5.23077 8.2H0.999999V9.8H5.23077V8.2ZM0.999999 8.2C0.889543 8.2 0.8 8.11046 0.8 8H-0.8C-0.8 8.99411 0.00588646 9.8 0.999999 9.8V8.2ZM0.8 8V3.76923H-0.8V8H0.8ZM0.8 3.76923C0.8 3.65877 0.889542 3.56923 1 3.56923V1.96923C0.0058881 1.96923 -0.8 2.77512 -0.8 3.76923H0.8ZM1 3.56923H2.76923V1.96923H1V3.56923Z" fill="#6190FF" mask="url(#path-1-inside-1_10_1675)"/>
</svg>
