<svg width="24" height="24" viewBox="0 0 24 24" fill="none" xmlns="http://www.w3.org/2000/svg">
<g clip-path="url(#clip0_5_124)">
<path fill-rule="evenodd" clip-rule="evenodd" d="M10.0513 2.13333H21.3333C21.6279 2.13333 21.8667 2.37211 21.8667 2.66667V13.9487C21.8667 14.2433 21.6279 14.4821 21.3333 14.4821H16.6154V10.0513C16.6154 8.57853 15.4215 7.38461 13.9487 7.38461H9.51795V2.66666C9.51795 2.37211 9.75672 2.13333 10.0513 2.13333ZM7.38461 7.38461V2.66666C7.38461 1.19391 8.57853 0 10.0513 0H21.3333C22.8061 0 24 1.19391 24 2.66667V13.9487C24 15.4215 22.8061 16.6154 21.3333 16.6154H16.6154V21.3333C16.6154 22.8061 15.4215 24 13.9487 24H2.66666C1.19391 24 0 22.8061 0 21.3333V10.0513C0 8.57853 1.19391 7.38461 2.66667 7.38461H7.38461Z" fill="white"/>
<mask id="mask0_5_124" style="mask-type:luminance" maskUnits="userSpaceOnUse" x="0" y="0" width="24" height="24">
<path fill-rule="evenodd" clip-rule="evenodd" d="M10.0513 2.13333H21.3333C21.6279 2.13333 21.8667 2.37211 21.8667 2.66667V13.9487C21.8667 14.2433 21.6279 14.4821 21.3333 14.4821H16.6154V10.0513C16.6154 8.57853 15.4215 7.38461 13.9487 7.38461H9.51795V2.66666C9.51795 2.37211 9.75672 2.13333 10.0513 2.13333ZM7.38461 7.38461V2.66666C7.38461 1.19391 8.57853 0 10.0513 0H21.3333C22.8061 0 24 1.19391 24 2.66667V13.9487C24 15.4215 22.8061 16.6154 21.3333 16.6154H16.6154V21.3333C16.6154 22.8061 15.4215 24 13.9487 24H2.66666C1.19391 24 0 22.8061 0 21.3333V10.0513C0 8.57853 1.19391 7.38461 2.66667 7.38461H7.38461Z" fill="white"/>
</mask>
<g mask="url(#mask0_5_124)">
<path d="M16.6154 14.482H14.4821V16.6154H16.6154V14.482ZM9.51795 7.38458H7.38461V9.51792H9.51795V7.38458ZM7.38461 7.38458V9.51792H9.51795V7.38458H7.38461ZM16.6154 16.6154V14.482H14.4821V16.6154H16.6154ZM21.3333 -2.83718e-05H10.0513V4.26664H21.3333V-2.83718e-05ZM24 2.66664C24 1.19387 22.8061 -2.83718e-05 21.3333 -2.83718e-05V4.26664C20.4497 4.26664 19.7333 3.55029 19.7333 2.66664H24ZM24 13.9487V2.66664H19.7333V13.9487H24ZM21.3333 16.6154C22.8061 16.6154 24 15.4214 24 13.9487H19.7333C19.7333 13.065 20.4497 12.3487 21.3333 12.3487V16.6154ZM16.6154 16.6154H21.3333V12.3487H16.6154V16.6154ZM14.4821 10.0513V14.482H18.7487V10.0513H14.4821ZM13.9487 9.51792C14.2433 9.51792 14.4821 9.75669 14.4821 10.0513H18.7487C18.7487 7.40029 16.5997 5.25125 13.9487 5.25125V9.51792ZM9.51795 9.51792H13.9487V5.25125H9.51795V9.51792ZM7.38461 2.66664V7.38458H11.6513V2.66664H7.38461ZM10.0513 -2.83718e-05C8.57853 -2.83718e-05 7.38461 1.19388 7.38461 2.66664H11.6513C11.6513 3.55029 10.9349 4.26664 10.0513 4.26664V-2.83718e-05ZM5.25128 2.66664V7.38458H9.51795V2.66664H5.25128ZM10.0513 -2.13336C7.40032 -2.13336 5.25128 0.0156682 5.25128 2.66664H9.51795C9.51795 2.37209 9.75672 2.13331 10.0513 2.13331V-2.13336ZM21.3333 -2.13336H10.0513V2.13331H21.3333V-2.13336ZM26.1333 2.66664C26.1333 0.0156717 23.9843 -2.13336 21.3333 -2.13336V2.13331C21.6279 2.13331 21.8667 2.37209 21.8667 2.66664H26.1333ZM26.1333 13.9487V2.66664H21.8667V13.9487H26.1333ZM21.3333 18.7487C23.9843 18.7487 26.1333 16.5997 26.1333 13.9487H21.8667C21.8667 14.2433 21.6279 14.482 21.3333 14.482V18.7487ZM16.6154 18.7487H21.3333V14.482H16.6154V18.7487ZM14.4821 16.6154V21.3333H18.7487V16.6154H14.4821ZM14.4821 21.3333C14.4821 21.6279 14.2433 21.8666 13.9487 21.8666V26.1333C16.5997 26.1333 18.7487 23.9843 18.7487 21.3333H14.4821ZM13.9487 21.8666H2.66666V26.1333H13.9487V21.8666ZM2.66666 21.8666C2.37211 21.8666 2.13333 21.6279 2.13333 21.3333H-2.13334C-2.13334 23.9843 0.0156956 26.1333 2.66666 26.1333V21.8666ZM2.13333 21.3333V10.0513H-2.13334V21.3333H2.13333ZM2.13333 10.0513C2.13333 9.75669 2.37211 9.51792 2.66667 9.51792V5.25125C0.0156999 5.25125 -2.13334 7.40029 -2.13334 10.0513H2.13333ZM2.66667 9.51792H7.38461V5.25125H2.66667V9.51792Z" fill="#6190FF"/>
</g>
</g>
<defs>
<clipPath id="clip0_5_124">
<rect width="24" height="24" fill="white"/>
</clipPath>
</defs>
</svg>
