<svg width="24" height="24" viewBox="0 0 24 24" fill="none" xmlns="http://www.w3.org/2000/svg">
<path d="M22.286 15.4289L20.4813 10.8923V9.50768C20.4555 6.92223 19.3899 4.6234 17.69 2.93251C16.0707 1.32164 13.8678 0.286875 11.4307 0.192444V6.68472C13.1389 7.34694 14.3538 9.00672 14.3538 10.9459C14.3538 13.2458 12.6455 15.1534 10.4313 15.4685C10.8925 16.8109 12.1668 17.7786 13.6637 17.7786H15.6778C15.8646 17.2847 16.3405 16.9328 16.8998 16.9328C17.6218 16.9328 18.2071 17.5181 18.2071 18.2402C18.2071 18.9622 17.6218 19.5475 16.8998 19.5475C16.3405 19.5475 15.8646 19.1956 15.6778 18.7017H13.6637C11.6657 18.7017 9.97957 17.3443 9.47677 15.5036C7.1004 15.3446 5.21538 13.3618 5.21538 10.9459C5.21538 9.05343 6.372 7.42614 8.01535 6.73337V0.694136C4.31815 1.96983 1.66154 5.49829 1.66154 9.64235C1.66154 12.3482 2.79508 14.7872 4.61031 16.5096L4.6044 23.8154H14.9423V21.9692H16.789C18.8274 21.9692 20.4813 20.3234 20.4813 18.2769V16.4308H21.589C22.111 16.4308 22.4798 15.915 22.286 15.4289ZM17.892 11.9073C17.3312 11.9073 16.8774 11.4517 16.8774 10.8887C16.8774 10.3257 17.3312 9.87008 17.892 9.87008C18.4528 9.87008 18.9066 10.3257 18.9066 10.8887C18.9066 11.4517 18.4528 11.9073 17.892 11.9073ZM7.52308 10.9459C7.52308 9.69894 8.53763 8.68438 9.78462 8.68438C11.0316 8.68438 12.0462 9.69894 12.0462 10.9459C12.0462 12.193 11.0316 13.2075 9.78462 13.2075C8.53763 13.2075 7.52308 12.193 7.52308 10.9459Z" fill="black"/>
</svg>
