<svg width="24" height="18" viewBox="0 0 24 18" fill="none"
    xmlns="http://www.w3.org/2000/svg">
    <path d="M20.9767 10.18V8C20.9767 5.87827 20.011 3.84344 18.292 2.34315C16.573 0.842855 14.2415 0 11.8105 0C9.37949 0 7.04803 0.842855 5.32904 2.34315C3.61005 3.84344 2.64433 5.87827 2.64433 8V10.18C1.97571 10.3863 1.39658 10.7681 0.986325 11.2729C0.57607 11.7778 0.354776 12.3811 0.352783 13V15C0.352783 15.7956 0.714928 16.5587 1.35955 17.1213C2.00417 17.6839 2.87847 18 3.7901 18H7.22742C7.5313 18 7.82273 17.8946 8.0376 17.7071C8.25248 17.5196 8.37319 17.2652 8.37319 17V11C8.37319 10.7348 8.25248 10.4804 8.0376 10.2929C7.82273 10.1054 7.5313 10 7.22742 10H4.93587V8C4.93587 6.4087 5.66016 4.88258 6.94941 3.75736C8.23865 2.63214 9.98724 2 11.8105 2C13.6338 2 15.3824 2.63214 16.6716 3.75736C17.9609 4.88258 18.6851 6.4087 18.6851 8V10H16.3936C16.0897 10 15.7983 10.1054 15.5834 10.2929C15.3685 10.4804 15.2478 10.7348 15.2478 11V17C15.2478 17.2652 15.3685 17.5196 15.5834 17.7071C15.7983 17.8946 16.0897 18 16.3936 18H19.8309C20.7425 18 21.6168 17.6839 22.2615 17.1213C22.9061 16.5587 23.2682 15.7956 23.2682 15V13C23.2662 12.3811 23.0449 11.7778 22.6347 11.2729C22.2244 10.7681 21.6453 10.3863 20.9767 10.18ZM6.08165 12V16H3.7901C3.48622 16 3.19479 15.8946 2.97992 15.7071C2.76504 15.5196 2.64433 15.2652 2.64433 15V13C2.64433 12.7348 2.76504 12.4804 2.97992 12.2929C3.19479 12.1054 3.48622 12 3.7901 12H6.08165ZM20.9767 15C20.9767 15.2652 20.856 15.5196 20.6411 15.7071C20.4262 15.8946 20.1348 16 19.8309 16H17.5394V12H19.8309C20.1348 12 20.4262 12.1054 20.6411 12.2929C20.856 12.4804 20.9767 12.7348 20.9767 13V15Z" fill="#F08740"/>
</svg>
