<svg width="32" height="24" viewBox="0 0 32 24" fill="none" xmlns="http://www.w3.org/2000/svg">
<g clip-path="url(#clip0_5_132)">
<path d="M27.9689 13.5733V10.6667C27.9689 7.83769 26.6813 5.12459 24.3893 3.1242C22.0973 1.12381 18.9887 0 15.7473 0C12.506 0 9.39737 1.12381 7.10539 3.1242C4.8134 5.12459 3.52577 7.83769 3.52577 10.6667V13.5733C2.63428 13.8484 1.86211 14.3575 1.3151 15.0305C0.768095 15.7037 0.473036 16.5081 0.470379 17.3333V20C0.470379 21.0608 0.953239 22.0783 1.81273 22.8284C2.67223 23.5785 3.83796 24 5.05347 24H9.63656C10.0417 24 10.4303 23.8595 10.7168 23.6095C11.0033 23.3595 11.1643 23.0203 11.1643 22.6667V14.6667C11.1643 14.3131 11.0033 13.9739 10.7168 13.7239C10.4303 13.4739 10.0417 13.3333 9.63656 13.3333H6.58116V10.6667C6.58116 8.54493 7.54688 6.51011 9.26588 5.00981C10.9849 3.50952 13.3163 2.66667 15.7473 2.66667C18.1784 2.66667 20.5099 3.50952 22.2288 5.00981C23.9479 6.51011 24.9135 8.54493 24.9135 10.6667V13.3333H21.8581C21.4529 13.3333 21.0644 13.4739 20.7779 13.7239C20.4913 13.9739 20.3304 14.3131 20.3304 14.6667V22.6667C20.3304 23.0203 20.4913 23.3595 20.7779 23.6095C21.0644 23.8595 21.4529 24 21.8581 24H26.4412C27.6567 24 28.8224 23.5785 29.682 22.8284C30.5415 22.0783 31.0243 21.0608 31.0243 20V17.3333C31.0216 16.5081 30.7265 15.7037 30.1796 15.0305C29.6325 14.3575 28.8604 13.8484 27.9689 13.5733ZM8.10887 16V21.3333H5.05347C4.64829 21.3333 4.25972 21.1928 3.97323 20.9428C3.68672 20.6928 3.52577 20.3536 3.52577 20V17.3333C3.52577 16.9797 3.68672 16.6405 3.97323 16.3905C4.25972 16.1405 4.64829 16 5.05347 16H8.10887ZM27.9689 20C27.9689 20.3536 27.808 20.6928 27.5215 20.9428C27.2349 21.1928 26.8464 21.3333 26.4412 21.3333H23.3859V16H26.4412C26.8464 16 27.2349 16.1405 27.5215 16.3905C27.808 16.6405 27.9689 16.9797 27.9689 17.3333V20Z" fill="#F08740"/>
</g>
<defs>
<clipPath id="clip0_5_132">
<rect width="32" height="24" fill="white"/>
</clipPath>
</defs>
</svg>
