<svg width="30" height="24" viewBox="0 0 30 24" fill="none" xmlns="http://www.w3.org/2000/svg">
<g clip-path="url(#clip0_6_4)">
<path d="M14.4139 23.234C21.5227 23.234 27.2855 18.2044 27.2855 12C27.2855 5.79564 21.5227 0.765991 14.4139 0.765991C7.30508 0.765991 1.54224 5.79564 1.54224 12C1.54224 18.2044 7.30508 23.234 14.4139 23.234Z" fill="#C1F7FD"/>
<path d="M14.414 23.234C16.9991 23.234 19.0947 18.2044 19.0947 12C19.0947 5.79564 16.9991 0.765991 14.414 0.765991C11.829 0.765991 9.7334 5.79564 9.7334 12C9.7334 18.2044 11.829 23.234 14.414 23.234Z" fill="#C1F7FD"/>
<path d="M14.4139 24C10.8034 24 8.85571 17.8172 8.85571 12C8.85571 6.18281 10.8034 0 14.4139 0C18.0244 0 19.9722 6.18281 19.9722 12C19.9722 17.8172 18.0244 24 14.4139 24ZM14.4139 1.53192C12.826 1.53192 10.6109 5.51489 10.6109 12C10.6109 18.4851 12.826 22.4681 14.4139 22.4681C16.0018 22.4681 18.217 18.4851 18.217 12C18.217 5.51489 16.0018 1.53192 14.4139 1.53192Z" fill="#7BCDD1"/>
<path d="M26.1155 8.68095H2.71257C2.47981 8.68095 2.25659 8.60026 2.092 8.45661C1.92743 8.31297 1.83496 8.11814 1.83496 7.91499C1.83496 7.71186 1.92743 7.51703 2.092 7.37338C2.25659 7.22974 2.47981 7.14905 2.71257 7.14905H26.1155C26.3483 7.14905 26.5715 7.22974 26.7362 7.37338C26.9007 7.51703 26.9931 7.71186 26.9931 7.91499C26.9931 8.11814 26.9007 8.31297 26.7362 8.45661C26.5715 8.60026 26.3483 8.68095 26.1155 8.68095Z" fill="#7BCDD1"/>
<path d="M26.1155 16.851H2.71257C2.47981 16.851 2.25659 16.7703 2.092 16.6266C1.92743 16.483 1.83496 16.2882 1.83496 16.085C1.83496 15.8819 1.92743 15.687 2.092 15.5434C2.25659 15.3998 2.47981 15.3191 2.71257 15.3191H26.1155C26.3483 15.3191 26.5715 15.3998 26.7362 15.5434C26.9007 15.687 26.9931 15.8819 26.9931 16.085C26.9931 16.2882 26.9007 16.483 26.7362 16.6266C26.5715 16.7703 26.3483 16.851 26.1155 16.851Z" fill="#7BCDD1"/>
<path d="M14.4141 24C11.6947 24 9.03644 23.2963 6.77539 21.9776C4.51433 20.6591 2.75205 18.7849 1.7114 16.5923C0.670752 14.3995 0.398471 11.9867 0.92899 9.65892C1.45951 7.33115 2.769 5.19296 4.69187 3.51472C6.61475 1.83649 9.06463 0.693605 11.7317 0.230583C14.3989 -0.232441 17.1633 0.00519943 19.6757 0.913452C22.1881 1.82171 24.3354 3.35977 25.8462 5.33316C27.357 7.30656 28.1634 9.62664 28.1634 12C28.1591 15.1815 26.7093 18.2316 24.1317 20.4812C21.5541 22.7309 18.0593 23.9964 14.4141 24ZM14.4141 1.53192C12.0419 1.53192 9.72295 2.14587 7.75053 3.29611C5.77813 4.44636 4.24083 6.08125 3.33301 7.99404C2.42521 9.90684 2.18769 12.0116 2.65049 14.0423C3.11328 16.0728 4.2556 17.9381 5.933 19.4021C7.6104 20.866 9.74754 21.8631 12.0742 22.2669C14.4007 22.6709 16.8123 22.4636 19.0039 21.6712C21.1957 20.8789 23.0689 19.5372 24.3867 17.8157C25.7048 16.0943 26.4081 14.0704 26.4081 12C26.4046 9.22465 25.1398 6.56387 22.8913 4.60139C20.6426 2.63891 17.5939 1.53503 14.4141 1.53192Z" fill="#8D9CF4"/>
<path d="M1.54241 12.766C1.30965 12.766 1.08643 12.6853 0.921842 12.5416C0.757258 12.398 0.664795 12.2031 0.664795 12C0.668976 8.81852 2.1189 5.7684 4.69648 3.51875C7.27407 1.2691 10.7688 0.00364903 14.4141 0C14.6469 0 14.8701 0.0806988 15.0346 0.224344C15.1993 0.367988 15.2917 0.562813 15.2917 0.765957C15.2917 0.969103 15.1993 1.16393 15.0346 1.30757C14.8701 1.45121 14.6469 1.53192 14.4141 1.53192C11.2341 1.53503 8.18548 2.63891 5.93694 4.60139C3.68839 6.56385 2.42359 9.22465 2.42003 12C2.42003 12.2031 2.32756 12.398 2.16297 12.5416C1.99839 12.6853 1.77516 12.766 1.54241 12.766Z" fill="#BEC6F4"/>
</g>
<defs>
<clipPath id="clip0_6_4">
<rect width="29.3333" height="24" fill="white"/>
</clipPath>
</defs>
</svg>
