<svg width="22" height="18" viewBox="0 0 22 18" fill="none"
    xmlns="http://www.w3.org/2000/svg">
    <path d="M10.8105 17.4255C16.1421 17.4255 20.4642 13.6533 20.4642 9C20.4642 4.3467 16.1421 0.574463 10.8105 0.574463C5.47887 0.574463 1.15674 4.3467 1.15674 9C1.15674 13.6533 5.47887 17.4255 10.8105 17.4255Z" fill="#C1F7FD"/>
    <path d="M10.8105 17.4255C12.7493 17.4255 14.321 13.6533 14.321 9C14.321 4.3467 12.7493 0.574463 10.8105 0.574463C8.87173 0.574463 7.30005 4.3467 7.30005 9C7.30005 13.6533 8.87173 17.4255 10.8105 17.4255Z" fill="#C1F7FD"/>
    <path d="M10.8105 18C8.10263 18 6.64185 13.3629 6.64185 9C6.64185 4.63711 8.10263 0 10.8105 0C13.5184 0 14.9792 4.63711 14.9792 9C14.9792 13.3629 13.5184 18 10.8105 18ZM10.8105 1.14894C9.61959 1.14894 7.95827 4.13617 7.95827 9C7.95827 13.8638 9.61959 16.8511 10.8105 16.8511C12.0014 16.8511 13.6628 13.8638 13.6628 9C13.6628 4.13617 12.0014 1.14894 10.8105 1.14894Z" fill="#7BCDD1"/>
    <path d="M19.5866 6.51075H2.03437C1.8598 6.51075 1.69238 6.45023 1.56894 6.34249C1.44551 6.23476 1.37616 6.08864 1.37616 5.93628C1.37616 5.78393 1.44551 5.63781 1.56894 5.53007C1.69238 5.42234 1.8598 5.36182 2.03437 5.36182H19.5866C19.7612 5.36182 19.9286 5.42234 20.0521 5.53007C20.1755 5.63781 20.2448 5.78393 20.2448 5.93628C20.2448 6.08864 20.1755 6.23476 20.0521 6.34249C19.9286 6.45023 19.7612 6.51075 19.5866 6.51075Z" fill="#7BCDD1"/>
    <path d="M19.5866 12.6382H2.03437C1.8598 12.6382 1.69238 12.5777 1.56894 12.4699C1.44551 12.3622 1.37616 12.2161 1.37616 12.0637C1.37616 11.9114 1.44551 11.7652 1.56894 11.6575C1.69238 11.5498 1.8598 11.4893 2.03437 11.4893H19.5866C19.7612 11.4893 19.9286 11.5498 20.0521 11.6575C20.1755 11.7652 20.2448 11.9114 20.2448 12.0637C20.2448 12.2161 20.1755 12.3622 20.0521 12.4699C19.9286 12.5777 19.7612 12.6382 19.5866 12.6382Z" fill="#7BCDD1"/>
    <path d="M10.8105 18C8.77099 18 6.77727 17.4722 5.08148 16.4832C3.38569 15.4943 2.06398 14.0887 1.28349 12.4442C0.503003 10.7996 0.298792 8.99002 0.696681 7.24419C1.09457 5.49836 2.07669 3.89472 3.51884 2.63604C4.961 1.37737 6.79841 0.520204 8.79873 0.172937C10.7991 -0.174331 12.8724 0.00389955 14.7567 0.685089C16.641 1.36628 18.2515 2.51983 19.3846 3.99987C20.5177 5.47992 21.1225 7.21998 21.1225 9.00001C21.1193 11.3861 20.0319 13.6737 18.0987 15.3609C16.1655 17.0482 13.5444 17.9973 10.8105 18ZM10.8105 1.14894C9.03135 1.14894 7.29215 1.6094 5.81284 2.47208C4.33354 3.33477 3.18056 4.56094 2.4997 5.99553C1.81885 7.43013 1.64071 9.00872 1.98781 10.5317C2.3349 12.0546 3.19164 13.4536 4.44969 14.5516C5.70774 15.6495 7.31059 16.3973 9.05556 16.7002C10.8005 17.0032 12.6092 16.8477 14.2529 16.2534C15.8967 15.6592 17.3016 14.6529 18.29 13.3618C19.2785 12.0707 19.806 10.5528 19.806 9.00001C19.8034 6.91849 18.8548 4.9229 17.1684 3.45104C15.4819 1.97918 13.1954 1.15127 10.8105 1.14894Z" fill="#8D9CF4"/>
    <path d="M1.15675 9.57447C0.982177 9.57447 0.814759 9.51395 0.69132 9.40621C0.567882 9.29848 0.498535 9.15236 0.498535 9C0.501671 6.61389 1.58911 4.3263 3.5223 2.63906C5.45549 0.951828 8.07655 0.00273677 10.8105 0C10.9851 0 11.1525 0.0605241 11.2759 0.168258C11.3994 0.275991 11.4687 0.42211 11.4687 0.574468C11.4687 0.726827 11.3994 0.872945 11.2759 0.980679C11.1525 1.08841 10.9851 1.14894 10.8105 1.14894C8.42555 1.15127 6.13905 1.97918 4.45264 3.45104C2.76623 4.92289 1.81763 6.91849 1.81496 9C1.81496 9.15236 1.74561 9.29848 1.62217 9.40621C1.49873 9.51395 1.33131 9.57447 1.15675 9.57447Z" fill="#BEC6F4"/>
</svg>
