<svg width="29" height="24" viewBox="0 0 29 24" fill="none" xmlns="http://www.w3.org/2000/svg">
<path d="M19.2058 1.8623C19.893 1.17506 19.4063 0 18.4344 0H2.18182C0.976833 0 0 0.976833 0 2.18182V21.8182C0 23.0232 0.976833 24 2.18182 24H21.8182C23.0232 24 24 23.0232 24 21.8182V9.88409C24 8.9122 22.8249 8.42548 22.1376 9.11271C21.9332 9.3173 21.8182 9.59476 21.8182 9.88409V19.6364C21.8182 20.8413 20.8413 21.8182 19.6364 21.8182H4.36364C3.15866 21.8182 2.18182 20.8413 2.18182 19.6364V4.36364C2.18182 3.15866 3.15864 2.18182 4.36364 2.18182H18.4344C18.7237 2.18182 19.0012 2.06688 19.2058 1.8623Z" fill="#6190FF"/>
<path d="M24.4035 0.142914C24.4883 0.056189 24.6278 0.0554624 24.7137 0.141297L26.3824 1.81008C26.467 1.89466 26.4677 2.03157 26.3841 2.11702L14.9171 13.8256C14.8917 13.8515 14.8602 13.8707 14.8255 13.8814L12.415 14.6239C12.2476 14.6754 12.0907 14.5186 12.1423 14.3511L12.8855 11.9384C12.8957 11.9051 12.9138 11.8748 12.9381 11.8499L24.4035 0.142914Z" fill="#6190FF"/>
</svg>
