<svg width="13" height="11" viewBox="0 0 13 11" fill="none"
    xmlns="http://www.w3.org/2000/svg">
    <path d="M8.80265 0.853553C9.11763 0.538571 8.89455 0 8.44909 0H1C0.447715 0 0 0.447715 0 1V10C0 10.5523 0.447715 11 1 11H10C10.5523 11 11 10.5523 11 10V4.53021C11 4.08476 10.4614 3.86168 10.1464 4.17666C10.0527 4.27043 10 4.3976 10 4.53021V9C10 9.55228 9.55228 10 9 10H2C1.44772 10 1 9.55228 1 9V2C1 1.44772 1.44771 1 2 1H8.44909C8.5817 1 8.70888 0.947322 8.80265 0.853553Z" fill="#6190FF"/>
    <path d="M11.1849 0.0654791C11.2238 0.0257303 11.2877 0.0253973 11.3271 0.064738L12.0919 0.829599C12.1307 0.868364 12.131 0.931112 12.0927 0.970279L6.837 6.3367C6.82535 6.34859 6.81091 6.35739 6.79499 6.3623L5.6902 6.70259C5.61346 6.72622 5.54156 6.65433 5.5652 6.57758L5.90581 5.47173C5.91051 5.45649 5.91878 5.44259 5.92994 5.4312L11.1849 0.0654791Z" fill="#6190FF"/>
</svg>
