<svg width="24" height="24" viewBox="0 0 24 24" fill="none" xmlns="http://www.w3.org/2000/svg">
<path d="M16.875 17.25C14.1675 17.25 11.25 16.665 11.25 15.375C11.25 14.085 14.1675 13.5 16.875 13.5C19.5825 13.5 22.5 14.085 22.5 15.375C22.5 16.665 19.5825 17.25 16.875 17.25ZM16.875 14.25C13.6575 14.25 12 15.0375 12 15.375C12 15.7125 13.6575 16.5 16.875 16.5C20.0925 16.5 21.75 15.7125 21.75 15.375C21.75 15.0375 20.0925 14.25 16.875 14.25Z" fill="#F57C00"/>
<path d="M16.875 18.7499C14.1675 18.7499 11.25 18.1649 11.25 16.8749C11.25 16.4549 11.5575 16.0874 12.1688 15.7874C12.2131 15.7658 12.2612 15.753 12.3105 15.75C12.3597 15.7469 12.4091 15.7536 12.4557 15.7696C12.5024 15.7856 12.5454 15.8107 12.5824 15.8433C12.6194 15.876 12.6496 15.9156 12.6713 15.9599C12.6929 16.0043 12.7056 16.0524 12.7087 16.1017C12.7118 16.1509 12.7051 16.2003 12.6891 16.2469C12.6731 16.2936 12.648 16.3366 12.6153 16.3736C12.5827 16.4106 12.5431 16.4408 12.4988 16.4624C12.1238 16.6574 12 16.8149 12 16.8749C12 17.2124 13.6575 17.9999 16.875 17.9999C20.0925 17.9999 21.75 17.2124 21.75 16.8749C21.75 16.8149 21.645 16.6574 21.2512 16.4624C21.2069 16.4408 21.1673 16.4106 21.1347 16.3736C21.102 16.3366 21.0769 16.2936 21.0609 16.2469C21.0449 16.2003 21.0382 16.1509 21.0413 16.1017C21.0444 16.0524 21.0571 16.0043 21.0787 15.9599C21.1004 15.9156 21.1306 15.876 21.1676 15.8433C21.2046 15.8107 21.2476 15.7856 21.2943 15.7696C21.3409 15.7536 21.3903 15.7469 21.4395 15.75C21.4888 15.753 21.5369 15.7658 21.5812 15.7874C22.1925 16.0874 22.5 16.4549 22.5 16.8749C22.5 18.1649 19.5825 18.7499 16.875 18.7499Z" fill="#F57C00"/>
<path d="M16.875 20.2499C14.1675 20.2499 11.25 19.6649 11.25 18.3749C11.25 17.9549 11.5575 17.5874 12.1688 17.2874C12.2583 17.2437 12.3615 17.2373 12.4557 17.2696C12.5024 17.2856 12.5454 17.3107 12.5824 17.3433C12.6194 17.376 12.6496 17.4156 12.6713 17.4599C12.6929 17.5043 12.7056 17.5524 12.7087 17.6017C12.7118 17.6509 12.7051 17.7003 12.6891 17.7469C12.6731 17.7936 12.648 17.8366 12.6153 17.8736C12.5827 17.9106 12.5431 17.9408 12.4988 17.9624C12.1238 18.1574 12 18.3149 12 18.3749C12 18.7124 13.6575 19.4999 16.875 19.4999C20.0925 19.4999 21.75 18.7124 21.75 18.3749C21.75 18.3149 21.645 18.1574 21.2512 17.9624C21.2069 17.9408 21.1673 17.9106 21.1347 17.8736C21.102 17.8366 21.0769 17.7936 21.0609 17.7469C21.0449 17.7003 21.0382 17.6509 21.0413 17.6017C21.0444 17.5524 21.0571 17.5043 21.0787 17.4599C21.1004 17.4156 21.1306 17.376 21.1676 17.3433C21.2046 17.3107 21.2476 17.2856 21.2943 17.2696C21.3409 17.2536 21.3903 17.2469 21.4395 17.25C21.4888 17.253 21.5369 17.2658 21.5812 17.2874C22.1925 17.5874 22.5 17.9549 22.5 18.3749C22.5 19.6649 19.5825 20.2499 16.875 20.2499Z" fill="#F57C00"/>
<path d="M16.875 21.7499C14.1675 21.7499 11.25 21.1649 11.25 19.8749C11.25 19.4549 11.5575 19.0874 12.1688 18.7874C12.2131 18.7658 12.2612 18.753 12.3105 18.75C12.3597 18.7469 12.4091 18.7536 12.4557 18.7696C12.5024 18.7856 12.5454 18.8107 12.5824 18.8433C12.6194 18.876 12.6496 18.9156 12.6713 18.9599C12.6929 19.0043 12.7056 19.0524 12.7087 19.1017C12.7118 19.1509 12.7051 19.2003 12.6891 19.2469C12.6731 19.2936 12.648 19.3366 12.6153 19.3736C12.5827 19.4106 12.5431 19.4408 12.4988 19.4624C12.1238 19.6574 12 19.8149 12 19.8749C12 20.2124 13.6575 20.9999 16.875 20.9999C20.0925 20.9999 21.75 20.2124 21.75 19.8749C21.75 19.8149 21.645 19.6574 21.2512 19.4624C21.2069 19.4408 21.1673 19.4106 21.1347 19.3736C21.102 19.3366 21.0769 19.2936 21.0609 19.2469C21.0449 19.2003 21.0382 19.1509 21.0413 19.1017C21.0444 19.0524 21.0571 19.0043 21.0787 18.9599C21.1004 18.9156 21.1306 18.876 21.1676 18.8433C21.2046 18.8107 21.2476 18.7856 21.2943 18.7696C21.3409 18.7536 21.3903 18.7469 21.4395 18.75C21.4888 18.753 21.5369 18.7658 21.5812 18.7874C22.1925 19.0874 22.5 19.4549 22.5 19.8749C22.5 21.1649 19.5825 21.7499 16.875 21.7499Z" fill="#F57C00"/>
<path d="M18.75 15.75H15C14.9005 15.75 14.8052 15.7105 14.7348 15.6402C14.6645 15.5698 14.625 15.4745 14.625 15.375C14.625 15.2755 14.6645 15.1802 14.7348 15.1098C14.8052 15.0395 14.9005 15 15 15H18.75C18.8495 15 18.9448 15.0395 19.0152 15.1098C19.0855 15.1802 19.125 15.2755 19.125 15.375C19.125 15.4745 19.0855 15.5698 19.0152 15.6402C18.9448 15.7105 18.8495 15.75 18.75 15.75Z" fill="#F57C00"/>
<path d="M8.12627 20.6625C7.89688 20.6622 7.66945 20.6203 7.45502 20.5388C6.9919 20.3604 6.61836 20.0058 6.41627 19.5525L1.67252 8.94003C1.57253 8.71498 1.51784 8.47243 1.51159 8.22625C1.50534 7.98006 1.54765 7.73506 1.6361 7.50522C1.72455 7.27539 1.85741 7.06523 2.02709 6.88676C2.19677 6.70828 2.39995 6.56497 2.62502 6.46503L10.5 2.94003C10.5893 2.90625 10.6881 2.9078 10.7763 2.94435C10.8645 2.9809 10.9354 3.0497 10.9746 3.13673C11.0138 3.22376 11.0184 3.32246 10.9873 3.41273C10.9563 3.503 10.892 3.57802 10.8075 3.62253L2.93252 7.14753C2.79744 7.20783 2.67557 7.29418 2.5739 7.40164C2.47224 7.5091 2.39276 7.63556 2.34002 7.77378C2.23332 8.04853 2.2387 8.3542 2.35502 8.62503L7.09877 19.2375C7.15881 19.3743 7.24548 19.4977 7.35374 19.6007C7.46199 19.7036 7.58965 19.7839 7.72928 19.837C7.86891 19.89 8.0177 19.9148 8.16699 19.9097C8.31627 19.9046 8.46306 19.8699 8.59877 19.8075L10.02 19.17C10.1135 19.1312 10.2186 19.1312 10.3121 19.1699C10.4056 19.2085 10.48 19.2828 10.5188 19.3763C10.5576 19.4698 10.5576 19.5748 10.5189 19.6684C10.4803 19.7619 10.406 19.8362 10.3125 19.875L8.89127 20.5125C8.6496 20.6156 8.38897 20.6667 8.12627 20.6625Z" fill="#999999"/>
<path d="M6.74999 12.9038C6.51381 12.9041 6.28193 12.8407 6.07878 12.7202C5.87564 12.5997 5.70877 12.4267 5.59577 12.2193C5.48277 12.0119 5.42782 11.7778 5.43672 11.5418C5.44563 11.3058 5.51805 11.0766 5.64636 10.8783C5.77466 10.68 5.95409 10.52 6.16574 10.4152C6.37738 10.3103 6.61339 10.2646 6.84887 10.2827C7.08436 10.3008 7.3106 10.3821 7.50373 10.518C7.69687 10.654 7.84975 10.8395 7.94624 11.0551C7.94836 11.0687 7.94836 11.0826 7.94624 11.0963C7.96066 11.136 7.96826 11.1778 7.96874 11.2201C7.96864 11.3082 7.93748 11.3935 7.88074 11.461C7.82401 11.5284 7.74531 11.5738 7.65848 11.589C7.57165 11.6042 7.48223 11.5883 7.40593 11.5442C7.32963 11.5 7.27132 11.4304 7.24124 11.3476C7.19351 11.2491 7.11809 11.1667 7.02422 11.1104C6.93035 11.0542 6.82212 11.0265 6.71278 11.0309C6.60344 11.0352 6.49774 11.0714 6.40862 11.1349C6.31951 11.1984 6.25086 11.2865 6.21108 11.3885C6.1713 11.4904 6.16211 11.6017 6.18465 11.7088C6.20719 11.8159 6.26047 11.9141 6.33797 11.9913C6.41547 12.0686 6.51382 12.1216 6.62098 12.1437C6.72813 12.1659 6.83943 12.1564 6.94124 12.1163C6.98601 12.0908 7.03554 12.0749 7.08675 12.0694C7.13796 12.0639 7.18975 12.069 7.23889 12.0845C7.28803 12.0999 7.33347 12.1252 7.37238 12.159C7.41128 12.1927 7.44282 12.2341 7.46502 12.2806C7.48722 12.3271 7.49962 12.3776 7.50143 12.4291C7.50324 12.4806 7.49442 12.5318 7.47554 12.5798C7.45666 12.6277 7.4281 12.6712 7.39167 12.7076C7.35523 12.744 7.31168 12.7725 7.26374 12.7913C7.10221 12.8642 6.92721 12.9025 6.74999 12.9038Z" fill="#666666"/>
<path d="M8.56505 9.11629C8.49292 9.11614 8.42236 9.09519 8.36183 9.05595C8.3013 9.01671 8.25338 8.96084 8.2238 8.89504L7.45505 7.17379C7.43597 7.12805 7.42615 7.07898 7.42615 7.02942C7.42615 6.97986 7.43597 6.93079 7.45505 6.88505C7.47149 6.83903 7.49731 6.79693 7.53088 6.76143C7.56445 6.72592 7.60503 6.69778 7.65005 6.67879L9.3713 5.9288C9.46058 5.89502 9.55938 5.89657 9.64756 5.93312C9.73574 5.96967 9.80667 6.03847 9.84588 6.1255C9.88509 6.21253 9.88964 6.31123 9.85859 6.4015C9.82755 6.49176 9.76325 6.56679 9.6788 6.61129L8.2988 7.2263L8.9138 8.60255C8.95438 8.69308 8.95744 8.796 8.9223 8.88877C8.88715 8.98155 8.81668 9.05662 8.7263 9.09755C8.67457 9.11549 8.61953 9.12189 8.56505 9.11629Z" fill="#666666"/>
<path d="M7.61632 11.5838C7.53816 11.5842 7.46181 11.5603 7.39794 11.5152C7.33407 11.4702 7.28586 11.4063 7.26007 11.3325C7.24369 11.2853 7.23693 11.2352 7.24017 11.1853C7.24342 11.1354 7.25661 11.0867 7.27897 11.042C7.30133 10.9972 7.33241 10.9574 7.37038 10.9249C7.40835 10.8924 7.45245 10.8677 7.50007 10.8525C7.54706 10.8354 7.597 10.8278 7.64695 10.8303C7.6969 10.8328 7.74585 10.8452 7.79093 10.8668C7.836 10.8885 7.87629 10.919 7.90942 10.9564C7.94254 10.9939 7.96784 11.0376 7.98382 11.085C8.01644 11.178 8.01112 11.2802 7.96901 11.3693C7.9269 11.4584 7.85139 11.5274 7.75882 11.5613C7.71275 11.576 7.66469 11.5836 7.61632 11.5838Z" fill="#999999"/>
<path d="M10.125 17.0213C10.0787 17.0217 10.0328 17.0128 9.99004 16.995L7.38379 15.9975C6.92016 15.8196 6.54606 15.465 6.34358 15.0115C6.14111 14.558 6.1268 14.0428 6.30379 13.5788L7.25254 11.0925C7.25649 11.0778 7.26282 11.0639 7.27129 11.0513L10.4663 2.71878C10.5544 2.48877 10.6869 2.27836 10.8564 2.09959C11.0258 1.92082 11.2288 1.77718 11.4538 1.67688C11.6788 1.57659 11.9213 1.5216 12.1675 1.51506C12.4137 1.50853 12.6588 1.55057 12.8888 1.63878L21.2963 4.85253C21.7597 5.02978 22.134 5.38348 22.3371 5.83614C22.5402 6.28879 22.5557 6.80351 22.38 7.26753L20.2763 12.75C20.2613 12.7994 20.2363 12.8451 20.2028 12.8844C20.1693 12.9236 20.1281 12.9555 20.0817 12.9781C20.0353 13.0007 19.9848 13.0135 19.9332 13.0156C19.8817 13.0178 19.8302 13.0093 19.7821 12.9907C19.734 12.9721 19.6903 12.9437 19.6536 12.9074C19.617 12.8711 19.5882 12.8276 19.5691 12.7797C19.55 12.7318 19.541 12.6804 19.5427 12.6289C19.5444 12.5773 19.5567 12.5266 19.5788 12.48L21.6788 6.98628C21.7313 6.84815 21.756 6.70104 21.7516 6.55334C21.7472 6.40565 21.7138 6.26026 21.6532 6.1255C21.5926 5.99073 21.506 5.86922 21.3985 5.76791C21.2909 5.6666 21.1644 5.58747 21.0263 5.53503L12.6188 2.33628C12.4797 2.28353 12.3316 2.25887 12.183 2.26373C12.0343 2.26859 11.8881 2.30287 11.7528 2.3646C11.6175 2.42632 11.4958 2.51427 11.3947 2.62334C11.2936 2.73241 11.2151 2.86044 11.1638 3.00003L7.97629 11.3513V11.3813L7.02754 13.86C6.97508 13.9982 6.95034 14.1453 6.95473 14.293C6.95913 14.4407 6.99258 14.5861 7.05318 14.7208C7.11377 14.8556 7.20032 14.9771 7.30787 15.0784C7.41543 15.1797 7.5419 15.2589 7.68004 15.3113L10.305 16.3088C10.3829 16.3463 10.4455 16.4095 10.4821 16.4878C10.5187 16.5662 10.5272 16.6547 10.506 16.7385C10.4848 16.8224 10.4353 16.8963 10.3659 16.9478C10.2965 16.9993 10.2114 17.0253 10.125 17.0213Z" fill="#999999"/>
<path d="M11.625 10.5637C11.4645 10.5632 11.3055 10.5327 11.1563 10.4737C10.9138 10.3804 10.7046 10.2173 10.5549 10.005C10.4053 9.79266 10.322 9.54072 10.3156 9.28105C10.3092 9.02139 10.38 8.76566 10.519 8.54626C10.6581 8.32685 10.8591 8.15363 11.0966 8.04853C11.3341 7.94342 11.5975 7.91117 11.8534 7.95583C12.1093 8.0005 12.3461 8.12008 12.534 8.29945C12.7219 8.47881 12.8523 8.70989 12.9088 8.96342C12.9653 9.21695 12.9452 9.48154 12.8513 9.72369C12.7907 9.88535 12.6984 10.0333 12.58 10.1589C12.4615 10.2844 12.3191 10.3851 12.1613 10.4549C11.9919 10.5277 11.8093 10.5647 11.625 10.5637ZM11.625 8.68869C11.4921 8.68705 11.3629 8.73251 11.2604 8.81701C11.1578 8.90152 11.0885 9.01961 11.0646 9.15036C11.0408 9.2811 11.0641 9.41606 11.1303 9.5313C11.1965 9.64654 11.3013 9.73463 11.4263 9.77994C11.5656 9.83132 11.7195 9.82591 11.8549 9.76489C11.9903 9.70387 12.0962 9.59211 12.15 9.45369C12.1788 9.38544 12.1936 9.31213 12.1936 9.23807C12.1936 9.164 12.1788 9.09069 12.15 9.02244C12.0885 8.8871 11.977 8.7809 11.8388 8.72619C11.7704 8.70036 11.6981 8.68641 11.625 8.68494V8.68869Z" fill="#666666"/>
<path d="M18.375 8.94747C18.2378 8.94657 18.1019 8.92117 17.9737 8.87247C17.8355 8.81974 17.7091 8.74026 17.6016 8.63859C17.4941 8.53692 17.4078 8.41505 17.3475 8.27997C17.285 8.14448 17.25 7.99791 17.2447 7.8488C17.2394 7.69968 17.2638 7.551 17.3165 7.4114C17.3692 7.27181 17.4492 7.14409 17.5517 7.03569C17.6542 6.92728 17.7773 6.84036 17.9137 6.77997C18.0492 6.71747 18.1958 6.68254 18.3449 6.67723C18.494 6.67191 18.6427 6.69631 18.7823 6.74901C18.9219 6.80171 19.0496 6.88165 19.158 6.98418C19.2664 7.08671 19.3533 7.20978 19.4137 7.34622C19.474 7.48143 19.5071 7.62722 19.5109 7.77523C19.5148 7.92323 19.4894 8.07055 19.4362 8.20872C19.3568 8.42605 19.2123 8.6136 19.0223 8.7458C18.8324 8.878 18.6064 8.94842 18.375 8.94747ZM18.375 7.44747C18.299 7.44798 18.225 7.47157 18.1627 7.51509C18.1004 7.55862 18.0528 7.62004 18.0262 7.69122C17.9887 7.78252 17.9887 7.88492 18.0262 7.97622C18.066 8.06715 18.1401 8.13862 18.2325 8.17497C18.2782 8.19405 18.3273 8.20388 18.3769 8.20388C18.4264 8.20388 18.4755 8.19405 18.5212 8.17497C18.6115 8.13355 18.6816 8.05803 18.7162 7.96497C18.7537 7.87367 18.7537 7.77127 18.7162 7.67997C18.6765 7.58904 18.6023 7.51757 18.51 7.48122C18.4673 7.46144 18.4217 7.44878 18.375 7.44372V7.44747Z" fill="#666666"/>
<path d="M17.0363 12.45C16.8991 12.4491 16.7632 12.4237 16.635 12.375C16.3567 12.2684 16.1321 12.0557 16.0104 11.7836C15.8888 11.5115 15.8801 11.2023 15.9863 10.9238C16.039 10.7856 16.1185 10.6591 16.2201 10.5516C16.3218 10.4442 16.4437 10.3578 16.5788 10.2975C16.7815 10.2097 17.0056 10.1835 17.2231 10.2222C17.4406 10.261 17.6419 10.3629 17.8018 10.5152C17.9618 10.6676 18.0734 10.8637 18.1226 11.0791C18.1719 11.2944 18.1566 11.5195 18.0788 11.7263C17.998 11.9378 17.8553 12.1201 17.6693 12.2492C17.4833 12.3783 17.2627 12.4483 17.0363 12.45ZM17.0363 10.95C16.9836 10.9506 16.9315 10.9607 16.8825 10.98C16.7923 11.0214 16.7221 11.097 16.6875 11.19C16.652 11.2825 16.6545 11.3853 16.6946 11.476C16.7346 11.5666 16.8089 11.6377 16.9013 11.6738C16.9473 11.6913 16.9963 11.6995 17.0456 11.698C17.0948 11.6966 17.1433 11.6854 17.1882 11.6652C17.2331 11.645 17.2736 11.6162 17.3074 11.5803C17.3412 11.5445 17.3675 11.5023 17.385 11.4563C17.4225 11.365 17.4225 11.2626 17.385 11.1713C17.3453 11.0803 17.2711 11.0089 17.1788 10.9725C17.1329 10.9569 17.0847 10.9493 17.0363 10.95Z" fill="#666666"/>
<path d="M16.335 11.43C16.2903 11.4303 16.2458 11.4227 16.2037 11.4075L14.1 10.605C14.0536 10.5874 14.0111 10.5608 13.9751 10.5266C13.939 10.4925 13.9101 10.4516 13.89 10.4062C13.8515 10.3173 13.8462 10.2175 13.875 10.125L15.2138 6.62245C15.2498 6.53014 15.3209 6.45583 15.4115 6.41578C15.5022 6.37573 15.605 6.37319 15.6975 6.40871L17.8013 7.2112C17.8473 7.22868 17.8895 7.25506 17.9253 7.28883C17.9612 7.3226 17.99 7.3631 18.0102 7.40803C18.0304 7.45295 18.0416 7.50141 18.043 7.55064C18.0445 7.59987 18.0362 7.64891 18.0187 7.69496C18.0013 7.74145 17.9748 7.78401 17.9407 7.82017C17.9067 7.85634 17.8658 7.88538 17.8205 7.90561C17.7751 7.92585 17.7262 7.93687 17.6765 7.93805C17.6269 7.93922 17.5775 7.93052 17.5313 7.91245L15.7875 7.23371L14.7188 10.035L16.47 10.7062C16.516 10.7237 16.5582 10.7501 16.5941 10.7838C16.6299 10.8176 16.6588 10.8581 16.679 10.903C16.6992 10.9479 16.7103 10.9964 16.7118 11.0456C16.7132 11.0949 16.705 11.1439 16.6875 11.19C16.6601 11.261 16.6117 11.3221 16.5487 11.3649C16.4857 11.4078 16.4112 11.4305 16.335 11.43Z" fill="#666666"/>
<path d="M14.25 10.6274C14.2041 10.6273 14.1585 10.6197 14.115 10.6049L12.3637 9.93368C12.2708 9.89837 12.1956 9.82757 12.1548 9.73685C12.114 9.64613 12.1109 9.54292 12.1462 9.44993C12.1816 9.35694 12.2524 9.28178 12.3431 9.24099C12.4338 9.2002 12.537 9.19712 12.63 9.23243L14.3812 9.90368C14.4619 9.93553 14.5291 9.99437 14.5713 10.0702C14.6134 10.146 14.628 10.234 14.6125 10.3194C14.5971 10.4048 14.5525 10.4821 14.4864 10.5383C14.4203 10.5944 14.3367 10.6259 14.25 10.6274Z" fill="#666666"/>
</svg>
