<svg width="22" height="18" viewBox="0 0 22 18" fill="none"
    xmlns="http://www.w3.org/2000/svg">
    <path d="M10.8081 -0.00512184V7.71055H0.601013C0.914218 5.82111 1.90755 4.06749 3.43751 2.70305C3.78284 2.39231 4.15496 2.10515 4.55062 1.84409C6.34605 0.64284 8.5458 -0.00723128 10.8081 -0.00512184Z" fill="#142359"/>
    <path d="M18.0238 2.56802H10.8079V-0.00512517C13.5068 -0.00661061 16.0983 0.917498 18.0238 2.56802Z" fill="#BF2121"/>
    <path d="M20.1254 5.1375H10.8079V2.56812H18.0238C18.8932 3.30913 19.6048 4.17912 20.1254 5.1375Z" fill="white"/>
    <path d="M21.015 7.71059H10.8079V5.13745H20.1254C20.5713 5.95028 20.8714 6.81814 21.015 7.71059Z" fill="#BF2121"/>
    <path d="M21.1226 8.99702C21.1239 9.42763 21.088 9.85771 21.0152 10.2836H0.600995C0.457709 9.43043 0.457709 8.5636 0.600995 7.71045H21.0152C21.088 8.13633 21.1239 8.56641 21.1226 8.99702Z" fill="white"/>
    <path d="M21.0152 10.2837C20.8715 11.1761 20.5715 12.044 20.1255 12.8568H1.49064C1.04469 12.044 0.744638 11.1761 0.601013 10.2837H21.0152Z" fill="#BF2121"/>
    <path d="M18.0241 15.4263C16.0964 17.0735 13.506 17.996 10.8082 17.996C8.11044 17.996 5.52004 17.0735 3.59235 15.4263H18.0241Z" fill="#BF2121"/>
    <path d="M20.1254 12.8569C19.6048 13.8153 18.8932 14.6853 18.0238 15.4263H3.59206C2.72263 14.6853 2.01103 13.8153 1.49048 12.8569H20.1254Z" fill="white"/>
    <path d="M7.67524 1.0415L7.97608 1.8442H8.94306L8.16088 2.33933L8.46172 3.14203L7.67524 2.6469L6.89305 3.14203L7.19389 2.33933L6.40741 1.8442H7.37869L7.67524 1.0415Z" fill="white"/>
    <path d="M7.67524 4.26709L7.97608 5.06979H8.94306L8.16088 5.56866L8.46172 6.37136L7.67524 5.87624L6.89305 6.37136L7.19389 5.56866L6.40741 5.06979H7.37869L7.67524 4.26709Z" fill="white"/>
    <path d="M4.05628 4.26709L4.35282 5.06979H5.32411L4.53762 5.56866L4.83846 6.37136L4.05628 5.87624L3.2698 6.37136L3.57064 5.56866L2.78845 5.06979H3.75544L4.05628 4.26709Z" fill="white"/>
    <path d="M4.5377 2.33912L4.83854 3.14182L4.05635 2.64669L3.27417 3.14182L3.43748 2.70296C3.78281 2.39222 4.15494 2.10506 4.55059 1.84399H5.32418L4.5377 2.33912Z" fill="white"/>
</svg>
