<svg width="30" height="24" viewBox="0 0 30 24" fill="none" xmlns="http://www.w3.org/2000/svg">
<g clip-path="url(#clip0_6_36)">
<path d="M14.4108 -0.00682911V10.2807H0.801392C1.219 7.76148 2.54344 5.42332 4.58339 3.60407C5.04383 3.18975 5.53999 2.80687 6.06753 2.45879C8.46144 0.85712 11.3944 -0.0096417 14.4108 -0.00682911Z" fill="#142359"/>
<path d="M24.0317 3.42403H14.4105V-0.00683355C18.0091 -0.00881414 21.4644 1.22333 24.0317 3.42403Z" fill="#BF2121"/>
<path d="M26.8339 6.85003H14.4105V3.42419H24.0317C25.1909 4.41221 26.1397 5.57219 26.8339 6.85003Z" fill="white"/>
<path d="M28.02 10.2808H14.4105V6.84998H26.8339C27.4284 7.93375 27.8285 9.0909 28.02 10.2808Z" fill="#BF2121"/>
<path d="M28.1635 11.9961C28.1652 12.5702 28.1174 13.1437 28.0203 13.7115H0.801367C0.610319 12.5739 0.610319 11.4182 0.801367 10.2806H28.0203C28.1174 10.8485 28.1652 11.4219 28.1635 11.9961Z" fill="white"/>
<path d="M28.0203 13.7115C27.8287 14.9014 27.4287 16.0586 26.834 17.1423H1.98756C1.39296 16.0586 0.992892 14.9014 0.801392 13.7115H28.0203Z" fill="#BF2121"/>
<path d="M24.0321 20.5684C21.4619 22.7646 18.008 23.9946 14.4109 23.9946C10.8139 23.9946 7.36005 22.7646 4.78979 20.5684H24.0321Z" fill="#BF2121"/>
<path d="M26.8339 17.1426C26.1397 18.4204 25.1909 19.5804 24.0317 20.5684H4.78941C3.63017 19.5804 2.68137 18.4204 1.9873 17.1426H26.8339Z" fill="white"/>
<path d="M10.2337 1.38867L10.6348 2.45894H11.9241L10.8812 3.11911L11.2823 4.18938L10.2337 3.52921L9.19073 4.18938L9.59185 3.11911L8.54321 2.45894H9.83825L10.2337 1.38867Z" fill="white"/>
<path d="M10.2337 5.68945L10.6348 6.75972H11.9241L10.8812 7.42488L11.2823 8.49515L10.2337 7.83499L9.19073 8.49515L9.59185 7.42488L8.54321 6.75972H9.83825L10.2337 5.68945Z" fill="white"/>
<path d="M5.40834 5.68945L5.80372 6.75972H7.09878L6.05012 7.42488L6.45124 8.49515L5.40834 7.83499L4.3597 8.49515L4.76082 7.42488L3.7179 6.75972H5.00722L5.40834 5.68945Z" fill="white"/>
<path d="M6.05031 3.11879L6.45143 4.18906L5.40851 3.52888L4.3656 4.18906L4.58335 3.60391C5.04379 3.18959 5.53996 2.80671 6.06749 2.45862H7.09895L6.05031 3.11879Z" fill="white"/>
</g>
<defs>
<clipPath id="clip0_6_36">
<rect width="29.3333" height="24" fill="white"/>
</clipPath>
</defs>
</svg>
