<svg width="718" height="718" viewBox="0 0 718 718" fill="none"
    xmlns="http://www.w3.org/2000/svg">
    <path opacity="0.5" d="M25.6667 359C25.6667 201.865 25.6667 123.297 74.4824 74.4822C123.298 25.6665 201.865 25.6665 359 25.6665C516.133 25.6665 594.703 25.6665 643.517 74.4822C692.333 123.297 692.333 201.865 692.333 359C692.333 516.133 692.333 594.703 643.517 643.516C594.703 692.333 516.133 692.333 359 692.333C201.865 692.333 123.298 692.333 74.4824 643.516C25.6667 594.703 25.6667 516.133 25.6667 359Z" stroke="#1C274C" stroke-width="50"/>
    <path d="M436.583 436.583L282 282M436.583 282L282 436.583" stroke="#1C274C" stroke-width="50" stroke-linecap="round" stroke-linejoin="round"/>
</svg>
