<svg width="24" height="24" viewBox="0 0 24 24" fill="none" xmlns="http://www.w3.org/2000/svg">
<g clip-path="url(#clip0_6_62)">
<path d="M23.4404 12.2245C23.4404 11.2413 23.3606 10.5238 23.1879 9.77966H11.96V14.2176H18.5505C18.4177 15.3205 17.7002 16.9815 16.1056 18.0976L16.0833 18.2462L19.6334 20.9964L19.8793 21.0209C22.1382 18.9347 23.4404 15.8653 23.4404 12.2245Z" fill="#4285F4"/>
<path d="M11.9599 23.9176C15.1888 23.9176 17.8994 22.8545 19.8793 21.0209L16.1056 18.0976C15.0958 18.8018 13.7404 19.2934 11.9599 19.2934C8.79753 19.2934 6.11347 17.2074 5.15667 14.324L5.01643 14.3359L1.32501 17.1927L1.27673 17.3269C3.24327 21.2334 7.28269 23.9176 11.9599 23.9176Z" fill="#34A853"/>
<path d="M5.15673 14.3239C4.90427 13.5798 4.75817 12.7825 4.75817 11.9587C4.75817 11.1349 4.90427 10.3376 5.14345 9.59354L5.13676 9.43507L1.39908 6.53235L1.27679 6.59052C0.466289 8.21162 0.0012207 10.032 0.0012207 11.9587C0.0012207 13.8854 0.466289 15.7058 1.27679 17.3269L5.15673 14.3239Z" fill="#FBBC05"/>
<path d="M11.9599 4.62403C14.2055 4.62403 15.7202 5.59401 16.584 6.40461L19.959 3.10928C17.8862 1.1826 15.1888 0 11.9599 0C7.28269 0 3.24327 2.68406 1.27673 6.59056L5.14339 9.59359C6.11347 6.7102 8.79753 4.62403 11.9599 4.62403Z" fill="#EB4335"/>
</g>
<defs>
<clipPath id="clip0_6_62">
<rect width="23.4528" height="24" fill="white"/>
</clipPath>
</defs>
</svg>
