<svg width="33" height="29" viewBox="0 0 33 29" fill="none"
    xmlns="http://www.w3.org/2000/svg">
    <path d="M15.6038 6.54604L16.4956 8.30278L17.3872 6.54591C18.3968 4.55658 19.348 3.18894 20.4647 2.30885C21.5468 1.45599 22.8637 1 24.7425 1C28.768 1 32 4.20614 32 8.12464C32 11.7986 30.1521 14.7461 27.1229 17.8657C25.6074 19.4264 23.8327 20.994 21.8926 22.7027L21.7852 22.7972C20.1021 24.2795 18.3058 25.8615 16.4955 27.6043C14.6885 25.8647 12.8958 24.2853 11.216 22.8054L11.0996 22.7028C9.1604 20.9942 7.38681 19.4266 5.87253 17.8659C2.84589 14.7466 1 11.799 1 8.12471C1 4.20545 4.23279 1.00007 8.24774 1.00007C10.1265 1.00007 11.4434 1.45605 12.5257 2.30892C13.6425 3.18902 14.5939 4.55667 15.6038 6.54604Z" fill="#D9D9D9" fill-opacity="0.7" stroke="white" stroke-width="2"/>
</svg>
