<svg width="28" height="24" viewBox="0 0 28 24" fill="none" xmlns="http://www.w3.org/2000/svg">
<g clip-path="url(#clip0_6_72)">
<path d="M12.9135 5.41746L13.6516 6.87132L14.3895 5.41736C15.225 3.77101 16.0122 2.63917 16.9364 1.91082C17.8319 1.20501 18.9217 0.827637 20.4766 0.827637C23.8081 0.827637 26.4828 3.48099 26.4828 6.72389C26.4828 9.76441 24.9535 12.2037 22.4466 14.7855C21.1924 16.0771 19.7237 17.3744 18.1181 18.7885L18.0292 18.8667C16.6363 20.0934 15.1497 21.4027 13.6515 22.845C12.1561 21.4053 10.6724 20.0982 9.28226 18.8735L9.18593 18.7886C7.58107 17.3746 6.11327 16.0772 4.86008 14.7856C2.35527 12.2041 0.827637 9.76474 0.827637 6.72395C0.827637 3.48042 3.50305 0.827695 6.82577 0.827695C8.3806 0.827695 9.47045 1.20506 10.3661 1.91088C11.2904 2.63924 12.0778 3.77109 12.9135 5.41746Z" fill="#D9D9D9" fill-opacity="0.7" stroke="white" stroke-width="2"/>
</g>
<defs>
<clipPath id="clip0_6_72">
<rect width="27.3103" height="24" fill="white"/>
</clipPath>
</defs>
</svg>
