<svg width="7" height="9" viewBox="0 0 7 9" fill="none"
    xmlns="http://www.w3.org/2000/svg">
    <path d="M6.50154 0H1.07392C0.907386 0 0.772385 0.134315 0.772385 0.3V0.9C0.772385 1.06569 0.907386 1.2 1.07392 1.2H6.50154C6.66807 1.2 6.80308 1.06569 6.80308 0.9V0.3C6.80308 0.134315 6.66807 0 6.50154 0Z" fill="#A6A6A6"/>
    <path d="M6.50154 7.8H1.07392C0.907386 7.8 0.772385 7.93431 0.772385 8.1V8.7C0.772385 8.86569 0.907386 9 1.07392 9H6.50154C6.66807 9 6.80308 8.86569 6.80308 8.7V8.1C6.80308 7.93431 6.66807 7.8 6.50154 7.8Z" fill="#A6A6A6"/>
    <path d="M3.78773 4.5L2.22277 3.7725C2.0149 3.6761 1.83897 3.52273 1.7156 3.33038C1.59223 3.13803 1.52653 2.91467 1.52622 2.6865V1.2H6.04924V2.6865C6.04893 2.91467 5.98323 3.13803 5.85986 3.33038C5.73649 3.52273 5.56056 3.6761 5.35269 3.7725L3.78773 4.5Z" fill="#A6A6A6"/>
    <path d="M3.78773 4.5L2.22277 5.2275C2.0149 5.3239 1.83897 5.47727 1.7156 5.66962C1.59223 5.86197 1.52653 6.08533 1.52622 6.3135V7.8H6.04924V6.3135C6.04893 6.08533 5.98323 5.86197 5.85986 5.66962C5.73649 5.47727 5.56056 5.3239 5.35269 5.2275L3.78773 4.5Z" fill="#A6A6A6"/>
</svg>
