<svg width="19" height="24" viewBox="0 0 19 24" fill="none" xmlns="http://www.w3.org/2000/svg">
<g clip-path="url(#clip0_6_88)">
<path d="M17.3376 0H2.86391C2.41982 0 2.05981 0.358173 2.05981 0.8V2.4C2.05981 2.84184 2.41982 3.2 2.86391 3.2H17.3376C17.7816 3.2 18.1417 2.84184 18.1417 2.4V0.8C18.1417 0.358173 17.7816 0 17.3376 0Z" fill="#A6A6A6"/>
<path d="M17.3376 20.8H2.86391C2.41982 20.8 2.05981 21.1582 2.05981 21.6V23.2C2.05981 23.6419 2.41982 24 2.86391 24H17.3376C17.7816 24 18.1417 23.6419 18.1417 23.2V21.6C18.1417 21.1582 17.7816 20.8 17.3376 20.8Z" fill="#A6A6A6"/>
<path d="M10.1005 12L5.92729 10.06C5.37297 9.80288 4.90382 9.3939 4.57484 8.88096C4.24585 8.36803 4.07065 7.7724 4.06982 7.16395V3.19995H16.1312V7.16395C16.1304 7.7724 15.9552 8.36803 15.6262 8.88096C15.2972 9.3939 14.8281 9.80288 14.2737 10.06L10.1005 12Z" fill="#A6A6A6"/>
<path d="M10.1005 12L5.92729 13.94C5.37297 14.1971 4.90382 14.6061 4.57484 15.119C4.24585 15.6319 4.07065 16.2275 4.06982 16.836V20.8H16.1312V16.836C16.1304 16.2275 15.9552 15.6319 15.6262 15.119C15.2972 14.6061 14.8281 14.1971 14.2737 13.94L10.1005 12Z" fill="#A6A6A6"/>
</g>
<defs>
<clipPath id="clip0_6_88">
<rect width="18.6667" height="24" fill="white"/>
</clipPath>
</defs>
</svg>
