<svg width="16" height="22" viewBox="0 0 16 22" fill="none" xmlns="http://www.w3.org/2000/svg">
<path d="M15 8.45459C15 6.59807 14.2625 4.8176 12.9497 3.50484C11.637 2.19209 9.85652 1.45459 8 1.45459C6.14348 1.45459 4.36301 2.19209 3.05025 3.50484C1.7375 4.8176 1 6.59807 1 8.45459C1 14.8182 8 20.5455 8 20.5455C8 20.5455 15 14.8182 15 8.45459Z" stroke="#00A3FF" stroke-linecap="round" stroke-linejoin="round"/>
<path d="M7.99999 11.6363C9.75726 11.6363 11.1818 10.2118 11.1818 8.45452C11.1818 6.69725 9.75726 5.27271 7.99999 5.27271C6.24272 5.27271 4.81818 6.69725 4.81818 8.45452C4.81818 10.2118 6.24272 11.6363 7.99999 11.6363Z" stroke="#00A3FF" stroke-linecap="round" stroke-linejoin="round"/>
</svg>
