<svg width="18" height="24" viewBox="0 0 18 24" fill="none" xmlns="http://www.w3.org/2000/svg">
<path d="M16.3637 9.22316C16.3637 7.19786 15.5591 5.25553 14.127 3.82343C12.6949 2.39134 10.7526 1.58679 8.72731 1.58679C6.70201 1.58679 4.75968 2.39134 3.32758 3.82343C1.89549 5.25553 1.09094 7.19786 1.09094 9.22316C1.09094 16.1653 8.72731 22.4132 8.72731 22.4132C8.72731 22.4132 16.3637 16.1653 16.3637 9.22316Z" stroke="#00A3FF" stroke-linecap="round" stroke-linejoin="round"/>
<path d="M8.72729 12.6942C10.6443 12.6942 12.1984 11.1402 12.1984 9.22314C12.1984 7.30612 10.6443 5.75208 8.72729 5.75208C6.81027 5.75208 5.25623 7.30612 5.25623 9.22314C5.25623 11.1402 6.81027 12.6942 8.72729 12.6942Z" stroke="#00A3FF" stroke-linecap="round" stroke-linejoin="round"/>
</svg>
