<svg width="22" height="24" viewBox="0 0 22 24" fill="none" xmlns="http://www.w3.org/2000/svg">
<g clip-path="url(#clip0_6_98)">
<path d="M11.4407 24C9.74805 22.5638 8.17907 20.9893 6.75021 19.2929C4.60597 16.7454 2.05969 12.9515 2.05969 9.33619C2.05876 7.48984 2.6085 5.68469 3.63931 4.14923C4.67013 2.61378 6.13573 1.41702 7.85056 0.710405C9.56541 0.00379491 11.4525 -0.180898 13.2729 0.179701C15.0933 0.540299 16.7653 1.42998 18.0772 2.73613C18.9506 3.60112 19.6429 4.62981 20.1141 5.76272C20.5851 6.89563 20.8257 8.11021 20.8218 9.33619C20.8218 12.9515 18.2755 16.7454 16.1313 19.2929C14.7024 20.9893 13.1334 22.5638 11.4407 24ZM11.4407 5.33696C10.3745 5.33696 9.35184 5.75832 8.59787 6.50832C7.84387 7.25832 7.42029 8.27555 7.42029 9.33619C7.42029 10.3969 7.84387 11.4141 8.59787 12.1641C9.35184 12.9141 10.3745 13.3354 11.4407 13.3354C12.507 13.3354 13.5297 12.9141 14.2836 12.1641C15.0376 11.4141 15.4612 10.3969 15.4612 9.33619C15.4612 8.27555 15.0376 7.25832 14.2836 6.50832C13.5297 5.75832 12.507 5.33696 11.4407 5.33696Z" fill="#A6A6A6"/>
</g>
<defs>
<clipPath id="clip0_6_98">
<rect width="21.3333" height="24" fill="white"/>
</clipPath>
</defs>
</svg>
