<svg width="8" height="9" viewBox="0 0 8 9" fill="none"
    xmlns="http://www.w3.org/2000/svg">
    <path d="M4.29028 9C3.65552 8.46142 3.06715 7.87098 2.53133 7.23484C1.72724 6.27953 0.772385 4.85681 0.772385 3.50107C0.772036 2.80869 0.978186 2.13176 1.36474 1.55596C1.7513 0.980167 2.3009 0.531381 2.94396 0.266402C3.58703 0.00142308 4.29468 -0.0678367 4.97733 0.0673877C5.65999 0.202612 6.28697 0.536242 6.77894 1.02605C7.10648 1.35042 7.3661 1.73618 7.54277 2.16102C7.71943 2.58586 7.80964 3.04133 7.80817 3.50107C7.80817 4.85681 6.85332 6.27953 6.04923 7.23484C5.5134 7.87098 4.92504 8.46142 4.29028 9ZM4.29028 2.00136C3.89042 2.00136 3.50694 2.15937 3.2242 2.44062C2.94145 2.72187 2.78261 3.10333 2.78261 3.50107C2.78261 3.89882 2.94145 4.28028 3.2242 4.56153C3.50694 4.84278 3.89042 5.00078 4.29028 5.00078C4.69014 5.00078 5.07362 4.84278 5.35636 4.56153C5.6391 4.28028 5.79795 3.89882 5.79795 3.50107C5.79795 3.10333 5.6391 2.72187 5.35636 2.44062C5.07362 2.15937 4.69014 2.00136 4.29028 2.00136Z" fill="#A6A6A6"/>
</svg>
