<svg width="24" height="24" viewBox="0 0 24 24" fill="none" xmlns="http://www.w3.org/2000/svg">
<path fill-rule="evenodd" clip-rule="evenodd" d="M19.4956 6.76947V3.74097C19.4956 3.14397 19.2586 2.57172 18.8364 2.14947C18.4149 1.72797 17.8426 1.49097 17.2456 1.49097C14.6484 1.49097 9.34286 1.49097 6.74561 1.49097C6.14936 1.49097 5.57636 1.72797 5.15486 2.14947C4.73261 2.57172 4.49561 3.14397 4.49561 3.74097V20.25C4.49561 20.847 4.73261 21.4192 5.15486 21.8407C5.57636 22.263 6.14936 22.5 6.74561 22.5C9.34286 22.5 14.6484 22.5 17.2456 22.5C17.6596 22.5 17.9956 22.164 17.9956 21.75C17.9956 21.336 17.6596 21 17.2456 21C14.6484 21 9.34286 21 6.74561 21C6.54686 21 6.35636 20.9212 6.21536 20.7802C6.07511 20.64 5.99561 20.4487 5.99561 20.25V3.74097C5.99561 3.54147 6.07511 3.35097 6.21536 3.21072C6.35636 3.06972 6.54686 2.99097 6.74561 2.99097H17.2456C17.4444 2.99097 17.6356 3.06972 17.7759 3.21072C17.9169 3.35097 17.9956 3.54147 17.9956 3.74097V6.76947C17.9956 7.18347 18.3316 7.51947 18.7456 7.51947C19.1596 7.51947 19.4956 7.18347 19.4956 6.76947Z" fill="black"/>
<path fill-rule="evenodd" clip-rule="evenodd" d="M11.2471 6.01955H10.5054C10.0914 6.01955 9.75537 6.35555 9.75537 6.76955C9.75537 7.18355 10.0914 7.51955 10.5054 7.51955H11.2449L11.2434 8.2583C11.2434 8.6723 11.5786 9.00905 11.9926 9.0098C12.4066 9.01055 12.7434 8.67455 12.7434 8.26055L12.7449 7.51955H13.4866C13.9006 7.51955 14.2366 7.18355 14.2366 6.76955C14.2366 6.35555 13.9006 6.01955 13.4866 6.01955H12.7471L12.7486 5.28005C12.7486 4.86605 12.4134 4.5293 11.9994 4.5293C11.5854 4.52855 11.2486 4.8638 11.2486 5.2778L11.2471 6.01955Z" fill="black"/>
<path fill-rule="evenodd" clip-rule="evenodd" d="M21.0022 16.5097V11.2462C21.0022 10.0035 19.995 8.99622 18.7522 8.99622H15.7515C14.5087 8.99622 13.5015 10.0035 13.5015 11.2462V16.5097C13.5015 16.7467 13.6132 16.9695 13.803 17.1112L16.821 19.3612C17.0887 19.5607 17.4547 19.5592 17.721 19.359L20.7045 17.109C20.892 16.9672 21.0022 16.7452 21.0022 16.5097ZM19.5022 11.2462V16.1362L17.2665 17.8222L15.0015 16.1332V11.2462C15.0015 10.8322 15.3367 10.4962 15.7515 10.4962H18.7522C19.167 10.4962 19.5022 10.8322 19.5022 11.2462Z" fill="black"/>
<path fill-rule="evenodd" clip-rule="evenodd" d="M8.24486 12.741L11.2479 12.7432C11.6619 12.744 11.9979 12.408 11.9986 11.994C11.9986 11.58 11.6634 11.244 11.2494 11.2432L8.24636 11.241C7.83236 11.2402 7.49636 11.5762 7.49561 11.9902C7.49561 12.4042 7.83086 12.7402 8.24486 12.741Z" fill="black"/>
<path fill-rule="evenodd" clip-rule="evenodd" d="M8.25145 15.741L11.2544 15.7432C11.6684 15.744 12.0044 15.408 12.0052 14.994C12.0052 14.58 11.6692 14.244 11.2552 14.2432L8.25295 14.241C7.83895 14.2402 7.5022 14.5762 7.5022 14.9902C7.50145 15.4042 7.83745 15.7402 8.25145 15.741Z" fill="black"/>
<path fill-rule="evenodd" clip-rule="evenodd" d="M8.24486 18.741L11.2479 18.7432C11.6619 18.744 11.9979 18.408 11.9986 17.994C11.9986 17.58 11.6634 17.244 11.2494 17.2432L8.24636 17.241C7.83236 17.2402 7.49636 17.5762 7.49561 17.9902C7.49561 18.4042 7.83086 18.7402 8.24486 18.741Z" fill="black"/>
</svg>
