<svg width="38" height="38" viewBox="0 0 38 38" fill="none" xmlns="http://www.w3.org/2000/svg">
    <path
        d="M19 38C29.4934 38 38 29.4934 38 19C38 8.50659 29.4934 0 19 0C8.50659 0 0 8.50659 0 19C0 29.4934 8.50659 38 19 38Z"
        fill="#F5EEE5" />
    <mask id="mask0_10_1784" style="mask-type:luminance" maskUnits="userSpaceOnUse" x="0" y="0" width="38" height="38">
        <path
            d="M19 38C29.4934 38 38 29.4934 38 19C38 8.50659 29.4934 0 19 0C8.50659 0 0 8.50659 0 19C0 29.4934 8.50659 38 19 38Z"
            fill="white" />
    </mask>
    <g mask="url(#mask0_10_1784)">
        <path
            d="M24.7 28.8419L35.302 31.7679C36.518 32.1859 37.468 33.0979 38 34.2759V37.9999H0V34.2759C0.494 33.0979 1.482 32.1859 2.698 31.7679L13.3 28.8419V23.1799H24.7V28.8419Z"
            fill="#E6C19C" />
    </g>
    <mask id="mask1_10_1784" style="mask-type:luminance" maskUnits="userSpaceOnUse" x="0" y="0" width="38" height="38">
        <path
            d="M19 38C29.4934 38 38 29.4934 38 19C38 8.50659 29.4934 0 19 0C8.50659 0 0 8.50659 0 19C0 29.4934 8.50659 38 19 38Z"
            fill="white" />
    </mask>
    <g mask="url(#mask1_10_1784)">
        <mask id="mask2_10_1784" style="mask-type:luminance" maskUnits="userSpaceOnUse" x="0" y="23" width="38"
            height="15">
            <path
                d="M24.7 28.8419L35.302 31.7679C36.518 32.1859 37.468 33.0979 38 34.2759V37.9999H0V34.2759C0.494 33.0979 1.482 32.1859 2.698 31.7679L13.3 28.8419V23.1799H24.7V28.8419Z"
                fill="white" />
        </mask>
        <g mask="url(#mask2_10_1784)">
            <path
                d="M0 22.0398H38V37.9998H0V22.0398ZM19 33.4398C23.18 33.4398 26.6 31.0458 26.6 28.1198C26.6 25.1938 23.18 22.7998 19 22.7998C14.82 22.7998 11.4 25.1938 11.4 28.1198C11.4 31.0458 14.82 33.4398 19 33.4398Z"
                fill="#E6A422" />
        </g>
        <mask id="mask3_10_1784" style="mask-type:luminance" maskUnits="userSpaceOnUse" x="0" y="23" width="38"
            height="15">
            <path
                d="M24.7 28.8419L35.302 31.7679C36.518 32.1859 37.468 33.0979 38 34.2759V37.9999H0V34.2759C0.494 33.0979 1.482 32.1859 2.698 31.7679L13.3 28.8419V23.1799H24.7V28.8419Z"
                fill="white" />
        </mask>
        <g mask="url(#mask3_10_1784)">
            <path
                d="M19 29.64C18.354 29.64 17.518 29.488 16.948 29.222C16.302 28.88 13.908 26.904 13.072 26.068C12.008 24.928 11.476 23.484 11.324 21.014C11.172 18.544 10.526 9.72797 10.526 7.71397C10.526 4.86397 12.692 0.417969 18.924 0.417969H18.962H19C25.27 0.455969 27.398 4.86397 27.398 7.71397C27.398 9.72797 26.752 18.544 26.6 21.014C26.448 23.484 25.916 24.89 24.852 26.068C24.054 26.942 21.66 28.88 20.976 29.222C20.482 29.488 19.646 29.64 19 29.64Z"
                fill="#D4B08C" />
        </g>
        <mask id="mask4_10_1784" style="mask-type:luminance" maskUnits="userSpaceOnUse" x="0" y="23" width="38"
            height="15">
            <path
                d="M24.7 28.8419L35.302 31.7679C36.518 32.1859 37.468 33.0979 38 34.2759V37.9999H0V34.2759C0.494 33.0979 1.482 32.1859 2.698 31.7679L13.3 28.8419V23.1799H24.7V28.8419Z"
                fill="white" />
        </mask>
        <g mask="url(#mask4_10_1784)">
            <path
                d="M19.0002 22.0398C14.1742 22.0398 10.2602 24.8518 10.2602 28.3098C10.2602 31.7678 14.1742 34.5798 19.0002 34.5798C23.8262 34.5798 27.7402 31.7678 27.7402 28.3098C27.7402 24.8518 23.8262 22.0398 19.0002 22.0398ZM19.0002 33.0598C15.0102 33.0598 11.7802 30.7798 11.7802 27.9298C11.7802 25.0798 15.0102 22.7998 19.0002 22.7998C22.9902 22.7998 26.2202 25.0798 26.2202 27.9298C26.2202 30.7798 22.9902 33.0598 19.0002 33.0598Z"
                fill="#D98C21" />
        </g>
    </g>
    <path
        d="M18.9997 28.1201C18.4297 28.1201 17.6697 28.0061 17.1757 27.7781C16.5677 27.5121 14.4397 26.0301 13.7177 25.3841C12.7677 24.5101 12.2737 23.4461 12.1217 21.5841C11.9697 19.7221 11.3997 13.1101 11.3997 11.5901C11.3997 9.42408 13.3377 6.08008 18.9997 6.08008C24.6617 6.08008 26.5997 9.42408 26.5997 11.5901C26.5997 13.1101 26.0297 19.7601 25.8777 21.6221C25.7257 23.4841 25.2697 24.5481 24.2817 25.4221C23.5597 26.0681 21.3937 27.5501 20.8237 27.8161C20.3297 28.0061 19.5697 28.1201 18.9997 28.1201Z"
        fill="#F2CEA5" />
    <path
        d="M21.6605 23.3699C20.9385 24.1299 19.6845 24.51 18.5825 24.282C17.5565 24.054 16.7965 23.5219 16.4165 22.6479L21.6605 23.3699Z"
        fill="#A3705F" />
    <path
        d="M21.6605 23.3699C20.9385 24.1299 19.6845 24.51 18.5825 24.282C17.5565 24.054 16.7965 23.5219 16.4165 22.6479L21.6605 23.3699Z"
        stroke="#A3705F" stroke-linecap="round" stroke-linejoin="round" />
    <mask id="mask5_10_1784" style="mask-type:luminance" maskUnits="userSpaceOnUse" x="12" y="15" width="13" height="3">
        <path d="M24.7001 15.5801H12.9201V17.4801H24.7001V15.5801Z" fill="white" />
    </mask>
    <g mask="url(#mask5_10_1784)">
        <path
            d="M22.42 17.8601C22.8398 17.8601 23.18 17.5198 23.18 17.1001C23.18 16.6804 22.8398 16.3401 22.42 16.3401C22.0003 16.3401 21.66 16.6804 21.66 17.1001C21.66 17.5198 22.0003 17.8601 22.42 17.8601Z"
            fill="#291F21" />
    </g>
    <mask id="mask6_10_1784" style="mask-type:luminance" maskUnits="userSpaceOnUse" x="12" y="15" width="13" height="3">
        <path d="M24.7001 15.5801H12.9201V17.4801H24.7001V15.5801Z" fill="white" />
    </mask>
    <g mask="url(#mask6_10_1784)">
        <path
            d="M15.5804 17.8601C16.0002 17.8601 16.3404 17.5198 16.3404 17.1001C16.3404 16.6804 16.0002 16.3401 15.5804 16.3401C15.1607 16.3401 14.8204 16.6804 14.8204 17.1001C14.8204 17.5198 15.1607 17.8601 15.5804 17.8601Z"
            fill="#291F21" />
    </g>
    <path
        d="M13.2999 15.9601C13.2999 15.9601 13.7179 14.8201 15.6179 14.8201C16.9099 14.8201 17.6699 15.3901 18.0499 15.9601"
        stroke="#CC9872" stroke-width="2" />
    <path
        d="M24.7382 15.9601C24.7382 15.9601 24.3202 14.8201 22.4202 14.8201C20.5962 14.8201 19.7602 15.9601 19.7602 16.7201C19.7602 17.4421 19.7602 20.1401 19.7602 20.1401"
        stroke="#BB8660" stroke-width="2" />
    <path
        d="M26.1444 18.3161C26.1444 18.3161 26.4484 15.9221 27.5504 15.5801C27.7024 14.8961 28.1204 12.9201 28.1204 11.8181C28.1204 10.7161 28.0064 9.65213 27.3984 8.74013C26.7144 7.75213 25.2704 7.18213 24.5104 7.18213C23.6364 7.71413 21.5844 8.93013 20.9384 9.65213C20.5964 10.0321 21.0904 10.3361 21.0904 10.3361C21.0904 10.3361 21.5464 10.1461 21.7364 10.1081C22.6864 9.84213 24.7764 9.65213 25.4224 10.6021C26.2204 11.7421 26.2204 15.0861 26.2204 15.5801C26.2204 16.0361 26.1444 18.3161 26.1444 18.3161Z"
        fill="#452228" />
    <path
        d="M10.4498 15.58C11.5518 15.96 11.8558 18.316 11.8558 18.316C11.8558 18.316 11.7798 16.036 11.7798 15.58C11.7798 14.972 11.8558 12.122 13.0718 10.754C14.4398 9.23398 16.2638 8.73998 17.2898 9.42398C17.8218 9.76598 19.6078 11.514 21.5078 10.07C22.6478 9.19598 24.7378 7.21998 24.7378 7.21998C24.7378 7.21998 23.6358 3.83798 18.6198 4.21798C16.4918 4.40798 14.1358 3.87598 14.1358 3.87598C14.1358 3.87598 14.0978 4.82598 14.4778 5.31998C11.3238 6.23198 10.2978 8.51198 9.99383 10.26C9.91783 10.602 9.87983 10.944 9.87983 11.286C9.87983 11.476 9.87983 11.666 9.87983 11.818C9.87983 12.92 10.2978 14.858 10.4498 15.58Z"
        fill="#6B363E" />
</svg>