<svg width="24" height="24" viewBox="0 0 24 24" fill="none" xmlns="http://www.w3.org/2000/svg">
<g clip-path="url(#clip0_6_120)">
<path d="M12 24C18.6274 24 24 18.6274 24 12C24 5.37258 18.6274 0 12 0C5.37258 0 0 5.37258 0 12C0 18.6274 5.37258 24 12 24Z" fill="#F5EEE5"/>
<mask id="mask0_6_120" style="mask-type:luminance" maskUnits="userSpaceOnUse" x="0" y="0" width="24" height="24">
<path d="M12 24C18.6274 24 24 18.6274 24 12C24 5.37258 18.6274 0 12 0C5.37258 0 0 5.37258 0 12C0 18.6274 5.37258 24 12 24Z" fill="white"/>
</mask>
<g mask="url(#mask0_6_120)">
<path d="M15.6 18.2159L22.296 20.0639C23.064 20.3279 23.664 20.9039 24 21.6479V23.9999H0V21.6479C0.312 20.9039 0.936 20.3279 1.704 20.0639L8.4 18.2159V14.6399H15.6V18.2159Z" fill="#E6C19C"/>
</g>
<mask id="mask1_6_120" style="mask-type:luminance" maskUnits="userSpaceOnUse" x="0" y="0" width="24" height="24">
<path d="M12 24C18.6274 24 24 18.6274 24 12C24 5.37258 18.6274 0 12 0C5.37258 0 0 5.37258 0 12C0 18.6274 5.37258 24 12 24Z" fill="white"/>
</mask>
<g mask="url(#mask1_6_120)">
<mask id="mask2_6_120" style="mask-type:luminance" maskUnits="userSpaceOnUse" x="0" y="14" width="24" height="10">
<path d="M15.6 18.2159L22.296 20.0639C23.064 20.3279 23.664 20.9039 24 21.6479V23.9999H0V21.6479C0.312 20.9039 0.936 20.3279 1.704 20.0639L8.4 18.2159V14.6399H15.6V18.2159Z" fill="white"/>
</mask>
<g mask="url(#mask2_6_120)">
<path d="M0 13.9198H24V23.9998H0V13.9198ZM12 21.1198C14.64 21.1198 16.8 19.6078 16.8 17.7598C16.8 15.9118 14.64 14.3998 12 14.3998C9.36 14.3998 7.2 15.9118 7.2 17.7598C7.2 19.6078 9.36 21.1198 12 21.1198Z" fill="#E6A422"/>
</g>
<mask id="mask3_6_120" style="mask-type:luminance" maskUnits="userSpaceOnUse" x="0" y="14" width="24" height="10">
<path d="M15.6 18.2159L22.296 20.0639C23.064 20.3279 23.664 20.9039 24 21.6479V23.9999H0V21.6479C0.312 20.9039 0.936 20.3279 1.704 20.0639L8.4 18.2159V14.6399H15.6V18.2159Z" fill="white"/>
</mask>
<g mask="url(#mask3_6_120)">
<path d="M12 18.7199C11.592 18.7199 11.064 18.6239 10.704 18.4559C10.296 18.2399 8.78401 16.9919 8.25601 16.4639C7.58401 15.7439 7.24801 14.8319 7.15201 13.2719C7.05601 11.7119 6.64801 6.14392 6.64801 4.87192C6.64801 3.07192 8.01601 0.263916 11.952 0.263916H11.976H12C15.96 0.287916 17.304 3.07192 17.304 4.87192C17.304 6.14392 16.896 11.7119 16.8 13.2719C16.704 14.8319 16.368 15.7199 15.696 16.4639C15.192 17.0159 13.68 18.2399 13.248 18.4559C12.936 18.6239 12.408 18.7199 12 18.7199Z" fill="#D4B08C"/>
</g>
<mask id="mask4_6_120" style="mask-type:luminance" maskUnits="userSpaceOnUse" x="0" y="14" width="24" height="10">
<path d="M15.6 18.2159L22.296 20.0639C23.064 20.3279 23.664 20.9039 24 21.6479V23.9999H0V21.6479C0.312 20.9039 0.936 20.3279 1.704 20.0639L8.4 18.2159V14.6399H15.6V18.2159Z" fill="white"/>
</mask>
<g mask="url(#mask4_6_120)">
<path d="M12.0001 13.9198C8.95213 13.9198 6.48013 15.6958 6.48013 17.8798C6.48013 20.0638 8.95213 21.8398 12.0001 21.8398C15.0481 21.8398 17.5201 20.0638 17.5201 17.8798C17.5201 15.6958 15.0481 13.9198 12.0001 13.9198ZM12.0001 20.8798C9.48013 20.8798 7.44013 19.4398 7.44013 17.6398C7.44013 15.8398 9.48013 14.3998 12.0001 14.3998C14.5201 14.3998 16.5601 15.8398 16.5601 17.6398C16.5601 19.4398 14.5201 20.8798 12.0001 20.8798Z" fill="#D98C21"/>
</g>
</g>
<path d="M11.9998 17.7601C11.6398 17.7601 11.1598 17.6881 10.8478 17.5441C10.4638 17.3761 9.1198 16.4401 8.6638 16.0321C8.0638 15.4801 7.7518 14.8081 7.6558 13.6321C7.5598 12.4561 7.1998 8.2801 7.1998 7.3201C7.1998 5.95209 8.4238 3.84009 11.9998 3.84009C15.5758 3.84009 16.7998 5.95209 16.7998 7.3201C16.7998 8.2801 16.4398 12.4801 16.3438 13.6561C16.2478 14.8321 15.9598 15.5041 15.3358 16.0561C14.8798 16.4641 13.5118 17.4001 13.1518 17.5681C12.8398 17.6881 12.3598 17.7601 11.9998 17.7601Z" fill="#F2CEA5"/>
<path d="M13.6803 14.76C13.2243 15.24 12.4323 15.48 11.7363 15.336C11.0883 15.192 10.6083 14.856 10.3683 14.304L13.6803 14.76Z" fill="#A3705F"/>
<path d="M13.6803 14.76C13.2243 15.24 12.4323 15.48 11.7363 15.336C11.0883 15.192 10.6083 14.856 10.3683 14.304L13.6803 14.76Z" stroke="#A3705F" stroke-linecap="round" stroke-linejoin="round"/>
<mask id="mask5_6_120" style="mask-type:luminance" maskUnits="userSpaceOnUse" x="8" y="9" width="8" height="3">
<path d="M15.6001 9.84009H8.16006V11.0401H15.6001V9.84009Z" fill="white"/>
</mask>
<g mask="url(#mask5_6_120)">
<path d="M14.16 11.2801C14.4251 11.2801 14.64 11.0651 14.64 10.8001C14.64 10.535 14.4251 10.3201 14.16 10.3201C13.8949 10.3201 13.68 10.535 13.68 10.8001C13.68 11.0651 13.8949 11.2801 14.16 11.2801Z" fill="#291F21"/>
</g>
<mask id="mask6_6_120" style="mask-type:luminance" maskUnits="userSpaceOnUse" x="8" y="9" width="8" height="3">
<path d="M15.6001 9.84009H8.16006V11.0401H15.6001V9.84009Z" fill="white"/>
</mask>
<g mask="url(#mask6_6_120)">
<path d="M9.84026 11.2801C10.1054 11.2801 10.3203 11.0651 10.3203 10.8001C10.3203 10.535 10.1054 10.3201 9.84026 10.3201C9.57519 10.3201 9.36026 10.535 9.36026 10.8001C9.36026 11.0651 9.57519 11.2801 9.84026 11.2801Z" fill="#291F21"/>
</g>
<path d="M8.39993 10.0801C8.39993 10.0801 8.66393 9.36011 9.86393 9.36011C10.6799 9.36011 11.1599 9.72011 11.3999 10.0801" stroke="#CC9872" stroke-width="2"/>
<path d="M15.6241 10.0801C15.6241 10.0801 15.3601 9.36011 14.1601 9.36011C13.0081 9.36011 12.4801 10.0801 12.4801 10.5601C12.4801 11.0161 12.4801 12.7201 12.4801 12.7201" stroke="#BB8660" stroke-width="2"/>
<path d="M16.5122 11.5681C16.5122 11.5681 16.7042 10.0561 17.4002 9.84011C17.4962 9.40811 17.7602 8.16011 17.7602 7.46411C17.7602 6.76811 17.6882 6.09613 17.3042 5.52013C16.8722 4.89613 15.9602 4.53613 15.4802 4.53613C14.9282 4.87213 13.6322 5.64013 13.2242 6.09613C13.0082 6.33611 13.3202 6.52811 13.3202 6.52811C13.3202 6.52811 13.6082 6.40811 13.7282 6.38411C14.3282 6.21613 15.6482 6.09613 16.0562 6.69611C16.5602 7.41611 16.5602 9.52811 16.5602 9.84011C16.5602 10.1281 16.5122 11.5681 16.5122 11.5681Z" fill="#452228"/>
<path d="M6.59988 9.84001C7.29588 10.08 7.48788 11.568 7.48788 11.568C7.48788 11.568 7.43988 10.128 7.43988 9.84001C7.43988 9.45601 7.48788 7.65601 8.25588 6.79201C9.11988 5.832 10.2719 5.52 10.9199 5.952C11.2559 6.168 12.3839 7.27201 13.5839 6.36001C14.3039 5.808 15.6239 4.56 15.6239 4.56C15.6239 4.56 14.9279 2.424 11.7599 2.664C10.4159 2.784 8.92788 2.448 8.92788 2.448C8.92788 2.448 8.90388 3.048 9.14388 3.36C7.15188 3.936 6.50388 5.376 6.3119 6.48001C6.2639 6.69601 6.2399 6.91201 6.2399 7.12801C6.2399 7.24801 6.2399 7.36801 6.2399 7.46401C6.2399 8.16001 6.50388 9.38401 6.59988 9.84001Z" fill="#6B363E"/>
</g>
<defs>
<clipPath id="clip0_6_120">
<rect width="24" height="24" fill="white"/>
</clipPath>
</defs>
</svg>
