<svg width="12" height="12" viewBox="0 0 12 12" fill="none"
    xmlns="http://www.w3.org/2000/svg">
    <g opacity="0.5">
        <path d="M6 11C8.76142 11 11 8.76142 11 6C11 3.23858 8.76142 1 6 1C3.23858 1 1 3.23858 1 6C1 8.76142 3.23858 11 6 11Z" stroke="black" stroke-width="0.5" stroke-miterlimit="10" stroke-linecap="round"/>
        <path d="M5.69462 7.12642V6.82017C5.69462 6.521 5.7617 6.36434 5.91857 6.14746L6.41941 5.45996C6.68066 5.10142 6.77024 4.92954 6.77024 4.67538C6.77024 4.24954 6.47149 3.98059 6.04545 3.98059C5.62712 3.98059 5.35816 4.23454 5.26857 4.69038C5.26107 4.73517 5.23128 4.75767 5.18628 4.75017L4.71566 4.66788C4.67066 4.66038 4.64837 4.63059 4.65566 4.58559C4.76795 3.86829 5.28357 3.39746 6.06066 3.39746C6.86733 3.39746 7.41274 3.92788 7.41274 4.66767C7.41274 5.02642 7.28607 5.28788 7.03191 5.63913L6.53128 6.32663C6.38191 6.52829 6.33691 6.63288 6.33691 6.88684V7.12579C6.33691 7.17059 6.30712 7.20038 6.26232 7.20038H5.7692C5.72441 7.20121 5.69462 7.17121 5.69462 7.12642ZM5.65732 7.84392C5.65732 7.79913 5.68712 7.76934 5.73212 7.76934H6.30003C6.34482 7.76934 6.37462 7.79934 6.37462 7.84392V8.48642C6.37462 8.53142 6.34462 8.561 6.30003 8.561H5.73212C5.68691 8.561 5.65732 8.53121 5.65732 8.48642V7.84392Z" fill="black"/>
    </g>
</svg>
