<svg width="23" height="24" viewBox="0 0 23 24" fill="none" xmlns="http://www.w3.org/2000/svg">
<g clip-path="url(#clip0_6_170)">
<path d="M9.36357 18.7271C4.22561 18.7271 0 14.5495 0 9.36357C0 4.22561 4.17759 0 9.36357 0C14.5495 0 18.7271 4.17759 18.7271 9.36357C18.6791 14.5495 14.5015 18.7271 9.36357 18.7271ZM9.36357 1.39253C4.94589 1.39253 1.34451 4.9939 1.34451 9.41158C1.34451 13.8293 4.94589 17.4306 9.36357 17.4306C13.7813 17.4306 17.3826 13.8293 17.3826 9.41158C17.3346 4.9939 13.7333 1.39253 9.36357 1.39253Z" fill="white"/>
<path d="M21.8481 22.9047L15.3177 16.4222L16.374 15.3658L22.8565 21.8962L21.8481 22.9047Z" fill="white"/>
</g>
<defs>
<clipPath id="clip0_6_170">
<rect width="22.8571" height="24" fill="white"/>
</clipPath>
</defs>
</svg>
