<svg width="20" height="21" viewBox="0 0 20 21" fill="none"
    xmlns="http://www.w3.org/2000/svg">
    <path d="M8.19312 16.3862C3.69741 16.3862 0 12.7308 0 8.19312C0 3.69741 3.65539 0 8.19312 0C12.7308 0 16.3862 3.65539 16.3862 8.19312C16.3442 12.7308 12.6888 16.3862 8.19312 16.3862ZM8.19312 1.21846C4.32765 1.21846 1.17645 4.36966 1.17645 8.23513C1.17645 12.1006 4.32765 15.2518 8.19312 15.2518C12.0586 15.2518 15.2098 12.1006 15.2098 8.23513C15.1678 4.36966 12.0166 1.21846 8.19312 1.21846Z" fill="white"/>
    <path d="M19.1171 20.0416L13.403 14.3694L14.3273 13.4451L19.9995 19.1592L19.1171 20.0416Z" fill="white"/>
</svg>
