<svg width="21" height="18" viewBox="0 0 21 18" fill="none"
    xmlns="http://www.w3.org/2000/svg">
    <path d="M15.4939 4.58755C15.3793 4.68755 15.2647 4.68755 15.1501 4.78755L11.7128 7.78755C11.2545 8.18755 11.2545 8.78755 11.7128 9.18755C12.1711 9.58755 12.8586 9.58755 13.3169 9.18755L14.8064 7.88755L14.8064 12.4875C14.8064 13.0875 15.2647 13.4875 15.9522 13.4875C16.6396 13.4875 17.0979 13.0875 17.0979 12.4875L17.0979 7.88755L18.5874 9.18755C19.0458 9.58755 19.7332 9.58755 20.1915 9.18755C20.4207 8.98755 20.5353 8.68755 20.5353 8.48755C20.5353 8.28755 20.4207 7.98755 20.1915 7.78755L16.7542 4.78755C16.6396 4.68755 16.5251 4.58755 16.4105 4.58755C16.0667 4.48755 15.8376 4.48755 15.4939 4.58755Z" fill="#6190FF"/>
    <path d="M14.8207 15.1C13.5603 15.7 12.1854 16 10.8105 16C6.34198 16 2.79008 12.9 2.79008 9C2.79008 5.1 6.34198 2 10.8105 2C12.1854 2 13.5603 2.3 14.8207 2.9C15.3936 3.2 16.081 3 16.4248 2.5C16.7685 2 16.5394 1.4 15.9665 1.1C14.3624 0.4 12.6437 0 10.8105 0C5.08163 0 0.498535 4 0.498535 9C0.498535 14 5.08163 18 10.8105 18C12.6437 18 14.3624 17.6 15.9665 16.8C16.5394 16.5 16.6539 15.9 16.4248 15.4C16.081 15 15.3936 14.8 14.8207 15.1Z" fill="#6190FF"/>
</svg>
