<svg width="28" height="24" viewBox="0 0 28 24" fill="none" xmlns="http://www.w3.org/2000/svg">
<g clip-path="url(#clip0_6_175)">
<path d="M20.6585 6.11685C20.5057 6.25018 20.3529 6.25018 20.2001 6.38351L15.617 10.3835C15.0059 10.9168 15.0059 11.7168 15.617 12.2502C16.2281 12.7835 17.1447 12.7835 17.7558 12.2502L19.7418 10.5168V16.6501C19.7418 17.4501 20.3529 17.9834 21.2695 17.9834C22.1861 17.9834 22.7971 17.4501 22.7971 16.6501V10.5168L24.7831 12.2502C25.3943 12.7835 26.3109 12.7835 26.9219 12.2502C27.2275 11.9835 27.3803 11.5835 27.3803 11.3168C27.3803 11.0502 27.2275 10.6502 26.9219 10.3835L22.3389 6.38351C22.1861 6.25018 22.0334 6.11685 21.8806 6.11685C21.4222 5.98351 21.1167 5.98351 20.6585 6.11685Z" fill="#6190FF"/>
<path d="M19.761 20.1333C18.0805 20.9333 16.2473 21.3333 14.4141 21.3333C8.45605 21.3333 3.72019 17.2 3.72019 12C3.72019 6.8 8.45605 2.66667 14.4141 2.66667C16.2473 2.66667 18.0805 3.06667 19.761 3.86667C20.5249 4.26667 21.4414 4 21.8998 3.33333C22.3581 2.66667 22.0526 1.86667 21.2887 1.46667C19.1499 0.533333 16.8583 0 14.4141 0C6.77559 0 0.664795 5.33333 0.664795 12C0.664795 18.6667 6.77559 24 14.4141 24C16.8583 24 19.1499 23.4667 21.2887 22.4C22.0526 22 22.2053 21.2 21.8998 20.5333C21.4414 20 20.5249 19.7333 19.761 20.1333Z" fill="#6190FF"/>
</g>
<defs>
<clipPath id="clip0_6_175">
<rect width="28" height="24" fill="white"/>
</clipPath>
</defs>
</svg>
