<svg width="30" height="24" viewBox="0 0 30 24" fill="none" xmlns="http://www.w3.org/2000/svg">
<path fill-rule="evenodd" clip-rule="evenodd" d="M15.2387 0.473131L18.7648 7.00713C18.8944 7.25395 19.1565 7.42809 19.4636 7.47144L27.3484 8.51921C27.7049 8.57955 27.9945 8.80608 28.102 9.10876C28.2096 9.41144 28.1176 9.74121 27.8628 9.96696L22.1573 15.0529C21.9371 15.2524 21.838 15.5311 21.8904 15.8043L23.2373 22.9857C23.3108 23.2945 23.1745 23.6127 22.8871 23.8036C22.5996 23.9947 22.212 24.0245 21.8907 23.8805L14.8383 20.4899C14.5696 20.3599 14.2432 20.3599 13.9745 20.4899L6.92208 23.8805C6.60068 24.0245 6.21308 23.9947 5.92563 23.8036C5.63817 23.6127 5.50196 23.2945 5.57544 22.9857L6.92232 15.8043C6.97473 15.5311 6.87571 15.2524 6.6554 15.0529L0.949892 9.96696C0.695095 9.74121 0.603199 9.41144 0.710739 9.10877C0.818277 8.80609 1.10782 8.57957 1.46427 8.51924L9.34908 7.47144C9.65617 7.42811 9.91828 7.25396 10.0479 7.00715L13.5741 0.473131C13.7197 0.185524 14.0461 0 14.4064 0C14.7667 0 15.0929 0.185524 15.2387 0.473131Z" fill="#F6AB27"/>
<path fill-rule="evenodd" clip-rule="evenodd" d="M17.9074 5.42028C15.6332 6.48161 13.533 7.80552 11.6638 9.35629C9.67161 11.0209 7.98159 12.9406 6.65192 15.0495L0.948417 9.9682C0.69363 9.74231 0.601982 9.41235 0.709958 9.10971C0.817935 8.80705 1.10801 8.58085 1.46469 8.52113L9.3474 7.47097C9.65407 7.42652 9.91615 7.25343 10.0485 7.00792L13.5729 0.471321C13.7201 0.184556 14.0466 0 14.4066 0C14.7666 0 15.0932 0.184556 15.2404 0.471321L17.9074 5.42028Z" fill="#F4CD1E"/>
</svg>
