<svg width="22" height="18" viewBox="0 0 22 18" fill="none"
    xmlns="http://www.w3.org/2000/svg">
    <path fill-rule="evenodd" clip-rule="evenodd" d="M11.429 0.354848L14.0736 5.25535C14.1708 5.44046 14.3674 5.57107 14.5977 5.60358L20.5113 6.38941C20.7787 6.43466 20.9959 6.60456 21.0765 6.83157C21.1572 7.05858 21.0882 7.30591 20.8971 7.47522L16.618 11.2897C16.4528 11.4393 16.3785 11.6483 16.4178 11.8532L17.428 17.2393C17.4831 17.4709 17.3809 17.7095 17.1653 17.8527C16.9497 17.996 16.659 18.0184 16.418 17.9104L11.1287 15.3674C10.9272 15.2699 10.6824 15.2699 10.4809 15.3674L5.19156 17.9104C4.95051 18.0184 4.65981 17.996 4.44422 17.8527C4.22863 17.7095 4.12647 17.4709 4.18158 17.2393L5.19174 11.8532C5.23105 11.6483 5.15678 11.4393 4.99155 11.2897L0.712419 7.47522C0.521321 7.30591 0.452399 7.05858 0.533054 6.83158C0.613708 6.60457 0.830867 6.43468 1.0982 6.38943L7.01181 5.60358C7.24213 5.57108 7.43871 5.44047 7.53592 5.25536L10.1806 0.354848C10.2898 0.139143 10.5346 0 10.8048 0C11.075 0 11.3197 0.139143 11.429 0.354848Z" fill="#F6AB27"/>
    <path fill-rule="evenodd" clip-rule="evenodd" d="M13.4306 4.06521C11.7249 4.86121 10.1498 5.85414 8.7479 7.01722C7.25374 8.26564 5.98622 9.70545 4.98897 11.2871L0.711343 7.47615C0.520253 7.30673 0.451517 7.05926 0.532499 6.83228C0.613482 6.60529 0.831036 6.43564 1.09855 6.39085L7.01058 5.60323C7.24058 5.56989 7.43714 5.44007 7.5364 5.25594L10.1797 0.353491C10.2901 0.138417 10.535 0 10.805 0C11.075 0 11.3199 0.138417 11.4303 0.353491L13.4306 4.06521Z" fill="#F4CD1E"/>
</svg>
