<svg width="13" height="12" viewBox="0 0 13 12" fill="none"
    xmlns="http://www.w3.org/2000/svg">
    <path d="M10.2167 6.88619C10.0651 7.03241 9.99537 7.24389 10.0299 7.4513L10.5505 10.3176C10.5944 10.5606 10.4913 10.8064 10.287 10.9468C10.0867 11.0925 9.82029 11.1099 9.60187 10.9934L7.00839 9.64765C6.91822 9.59988 6.81808 9.57425 6.71561 9.57133H6.55692C6.50188 9.57949 6.44801 9.59696 6.39882 9.62376L3.80475 10.976C3.67651 11.04 3.53129 11.0628 3.389 11.04C3.04235 10.9748 2.81105 10.6462 2.86785 10.2996L3.389 7.43324C3.42355 7.22409 3.35387 7.01144 3.2022 6.86288L1.08772 4.82383C0.910879 4.65313 0.849395 4.39679 0.930203 4.1655C1.00867 3.9348 1.20893 3.76643 1.45077 3.72856L4.36104 3.30851C4.58239 3.28579 4.7768 3.1518 4.87634 2.95372L6.15874 0.337901C6.18918 0.279642 6.22842 0.226044 6.27585 0.180602L6.32855 0.139821C6.35607 0.109526 6.38769 0.0844752 6.42283 0.0640846L6.48665 0.0407811L6.5862 0H6.83272C7.0529 0.0227209 7.24672 0.153803 7.34802 0.349553L8.6474 2.95372C8.74109 3.14423 8.9232 3.27647 9.13342 3.30851L12.0437 3.72856C12.2896 3.76352 12.4952 3.93247 12.5766 4.1655C12.6533 4.39912 12.5871 4.65546 12.4067 4.82383L10.2167 6.88619Z" fill="#FFC600"/>
</svg>
