<svg width="26" height="24" viewBox="0 0 26 24" fill="none" xmlns="http://www.w3.org/2000/svg">
<path d="M20.4334 13.7724C20.1302 14.0648 19.9907 14.4878 20.0598 14.9026L21.101 20.6352C21.1888 21.1212 20.9826 21.6128 20.574 21.8936C20.1734 22.185 19.6406 22.2198 19.2037 21.9868L14.0168 19.2953C13.8364 19.1998 13.6362 19.1485 13.4312 19.1427H13.1138C13.0038 19.159 12.896 19.1939 12.7976 19.2475L7.6095 21.952C7.35302 22.08 7.06258 22.1256 6.778 22.08C6.0847 21.9496 5.6221 21.2924 5.7357 20.5992L6.778 14.8665C6.8471 14.4482 6.70774 14.0229 6.4044 13.7258L2.17544 9.64766C1.82176 9.30626 1.69879 8.79358 1.86041 8.331C2.01734 7.8696 2.41786 7.53286 2.90154 7.45712L8.72208 6.61702C9.16478 6.57158 9.5536 6.3036 9.75268 5.90744L12.3175 0.675802C12.3784 0.559284 12.4568 0.452088 12.5517 0.361204L12.6571 0.279642C12.7121 0.219052 12.7754 0.16895 12.8457 0.128169L12.9733 0.0815622L13.1724 0H13.6654C14.1058 0.0454418 14.4934 0.307606 14.696 0.699106L17.2948 5.90744C17.4822 6.28846 17.8464 6.55294 18.2668 6.61702L24.0874 7.45712C24.5792 7.52704 24.9904 7.86494 25.1532 8.331C25.3066 8.79824 25.1742 9.31092 24.8134 9.64766L20.4334 13.7724Z" fill="#FFC600"/>
</svg>
