<svg width="24" height="24" viewBox="0 0 24 24" fill="none" xmlns="http://www.w3.org/2000/svg">
<g clip-path="url(#clip0_6_183)">
<path d="M6.18753 7.8263L4.56378 8.1713L4.55628 13.5113C4.55628 14.4975 5.29878 15.135 6.28503 15.135C6.83253 15.135 7.23378 15.0338 7.45503 14.9138V13.6463C7.24128 13.7325 6.19128 14.04 6.19128 13.0575V10.6875H7.45503V9.27005H6.19128L6.18753 7.8263ZM9.52878 9.7613L9.42753 9.27005H7.98753V15.015H9.64878V11.1488C10.0425 10.6313 10.7063 10.7325 10.92 10.8V9.27005C10.695 9.1913 9.91878 9.04505 9.52878 9.7613ZM12.99 7.05005L11.3175 7.4063V8.7638L12.99 8.40755V7.05005ZM1.68378 10.9613C1.68378 10.7025 1.90128 10.6013 2.25003 10.5975C2.75628 10.5975 3.40128 10.7513 3.90753 11.025V9.45755C3.35628 9.24005 2.80503 9.1538 2.25378 9.1538C0.903784 9.1538 0.00378418 9.8588 0.00378418 11.0363C0.00378418 12.8813 2.53503 12.5813 2.53503 13.3763C2.53503 13.6838 2.26878 13.785 1.89753 13.785C1.34628 13.785 0.633784 13.5563 0.0750342 13.2525V14.7525C0.693784 15.0188 1.32003 15.1313 1.89378 15.1313C3.27753 15.1313 4.23003 14.5388 4.23003 13.3388C4.23003 11.355 1.68378 11.7113 1.68378 10.9613ZM24 12.21C24 10.5038 23.175 9.15755 21.5925 9.15755C20.01 9.15755 19.0463 10.5038 19.0463 12.1988C19.0463 14.205 20.1825 15.1313 21.8025 15.1313C22.5975 15.1313 23.1938 14.9513 23.6475 14.7V13.4475C23.1938 13.6763 22.6725 13.815 22.0125 13.815C21.3638 13.815 20.7938 13.5863 20.7188 12.8063H23.9775C23.985 12.72 24 12.3713 24 12.21ZM20.7038 11.58C20.7038 10.83 21.165 10.515 21.5813 10.515C21.99 10.515 22.425 10.83 22.425 11.58H20.7038ZM16.47 9.15755C15.8175 9.15755 15.3975 9.46505 15.165 9.6788L15.0788 9.2663H13.6125V16.9463L15.2775 16.5938L15.2813 14.7113C15.5213 14.8875 15.8775 15.1313 16.4588 15.1313C17.6513 15.1313 18.7388 14.2613 18.7388 12.1463C18.7425 10.2113 17.64 9.15755 16.47 9.15755ZM16.0725 13.7513C15.6825 13.7513 15.45 13.6088 15.2888 13.4363L15.2775 10.9613C15.45 10.77 15.69 10.6313 16.0725 10.6313C16.68 10.6313 17.1 11.3138 17.1 12.1838C17.1038 13.08 16.6913 13.7513 16.0725 13.7513ZM11.3213 15.015H12.9938V9.27005H11.3213V15.015Z" fill="black"/>
</g>
<defs>
<clipPath id="clip0_6_183">
<rect width="24" height="24" fill="white"/>
</clipPath>
</defs>
</svg>
