<svg width="24" height="24" viewBox="0 0 24 24" fill="none" xmlns="http://www.w3.org/2000/svg">
<g clip-path="url(#clip0_6_188)">
<path d="M17.1004 4.5H15.3817C15.3817 4.10218 15.2006 3.72065 14.8783 3.43934C14.556 3.15804 14.119 3 13.6631 3H12.8038V2.25C12.8038 1.65326 12.5322 1.08097 12.0487 0.65901C11.5652 0.237053 10.9095 0 10.2258 0C9.54204 0 8.88633 0.237053 8.40286 0.65901C7.91939 1.08097 7.64778 1.65326 7.64778 2.25V3H6.78845C6.33263 3 5.8955 3.15804 5.57318 3.43934C5.25087 3.72065 5.0698 4.10218 5.0698 4.5H3.35114C2.66741 4.5 2.0117 4.73705 1.52823 5.159C1.04476 5.58097 0.773148 6.15326 0.773148 6.75V21.75C0.773148 22.3468 1.04476 22.919 1.52823 23.341C2.0117 23.763 2.66741 24 3.35114 24H11.0851C11.313 24 11.5316 23.921 11.6927 23.7803C11.8539 23.6396 11.9444 23.449 11.9444 23.25C11.9444 23.051 11.8539 22.8604 11.6927 22.7197C11.5316 22.579 11.313 22.5 11.0851 22.5H3.35114C3.12323 22.5 2.90465 22.421 2.7435 22.2803C2.58234 22.1396 2.4918 21.949 2.4918 21.75V6.75C2.4918 6.55109 2.58234 6.36032 2.7435 6.21967C2.90465 6.07902 3.12323 6 3.35114 6H5.0698C5.0698 6.39782 5.25087 6.77935 5.57318 7.06066C5.8955 7.34196 6.33263 7.5 6.78845 7.5H13.6631C14.119 7.5 14.556 7.34196 14.8783 7.06066C15.2006 6.77935 15.3817 6.39782 15.3817 6H17.1004C17.3284 6 17.5469 6.07902 17.708 6.21967C17.8692 6.36032 17.9597 6.55109 17.9597 6.75V12.75C17.9597 12.949 18.0503 13.1396 18.2114 13.2803C18.3726 13.421 18.5911 13.5 18.8191 13.5C19.047 13.5 19.2655 13.421 19.4267 13.2803C19.5878 13.1396 19.6784 12.949 19.6784 12.75V6.75C19.6784 6.15326 19.4068 5.58097 18.9233 5.159C18.4398 4.73705 17.7841 4.5 17.1004 4.5ZM9.36645 2.25C9.36645 2.05109 9.45698 1.86032 9.61814 1.71967C9.7793 1.57902 9.99786 1.5 10.2258 1.5C10.4537 1.5 10.6723 1.57902 10.8334 1.71967C10.9946 1.86032 11.0851 2.05109 11.0851 2.25V3H9.36645V2.25ZM6.78845 6V4.5H13.6631V5.25V6H6.78845Z" fill="#04009A"/>
<path d="M11.0852 18C10.8864 17.999 10.6943 17.9378 10.5413 17.8271C10.3884 17.7163 10.2842 17.5627 10.2465 17.3923C10.2087 17.222 10.2398 17.0456 10.3344 16.893C10.429 16.7405 10.5812 16.6213 10.7652 16.5557C10.9492 16.49 11.1536 16.4822 11.3435 16.5334C11.5334 16.5845 11.6971 16.6915 11.8068 16.8361C11.9165 16.9808 11.9653 17.1541 11.945 17.3267C11.9247 17.4992 11.8364 17.6603 11.6953 17.7824C11.5306 17.9195 11.3127 17.9972 11.0852 18Z" fill="#77ACF1"/>
<path d="M5.92929 18.7501C5.81619 18.7507 5.70408 18.7317 5.59938 18.6944C5.49468 18.6571 5.39945 18.6021 5.31916 18.5326L4.45983 17.7826C4.29802 17.6414 4.20711 17.4499 4.20711 17.2501C4.20711 17.0504 4.29802 16.8589 4.45983 16.7176C4.62165 16.5764 4.84112 16.4971 5.06996 16.4971C5.2988 16.4971 5.51826 16.5764 5.68007 16.7176L5.92929 16.9426L7.03782 15.9676C7.11794 15.8977 7.21306 15.8422 7.31775 15.8043C7.42242 15.7665 7.53464 15.7471 7.64794 15.7471C7.76126 15.7471 7.87346 15.7665 7.97814 15.8043C8.08282 15.8422 8.17794 15.8977 8.25807 15.9676C8.33819 16.0375 8.40174 16.1205 8.44511 16.212C8.48847 16.3033 8.51079 16.4012 8.51079 16.5001C8.51079 16.599 8.48847 16.6969 8.44511 16.7883C8.40174 16.8796 8.33819 16.9627 8.25807 17.0326L6.5394 18.5326C6.45911 18.6021 6.36388 18.6571 6.25918 18.6944C6.15449 18.7317 6.04238 18.7507 5.92929 18.7501Z" fill="#77ACF1"/>
<path d="M15.3817 12H11.0851C10.8572 12 10.6386 11.921 10.4775 11.7803C10.3163 11.6397 10.2258 11.4489 10.2258 11.25C10.2258 11.0511 10.3163 10.8603 10.4775 10.7197C10.6386 10.579 10.8572 10.5 11.0851 10.5H15.3817C15.6097 10.5 15.8282 10.579 15.9894 10.7197C16.1506 10.8603 16.241 11.0511 16.241 11.25C16.241 11.4489 16.1506 11.6397 15.9894 11.7803C15.8282 11.921 15.6097 12 15.3817 12Z" fill="#77ACF1"/>
<path d="M5.92929 12.7501C5.81619 12.7507 5.70408 12.7318 5.59938 12.6944C5.49468 12.6571 5.39945 12.6022 5.31916 12.5327L4.45983 11.7826C4.29802 11.6414 4.20711 11.4499 4.20711 11.2501C4.20711 11.0504 4.29802 10.8589 4.45983 10.7176C4.62165 10.5764 4.84112 10.4971 5.06996 10.4971C5.2988 10.4971 5.51826 10.5764 5.68007 10.7176L5.92929 10.9426L7.03782 9.96764C7.19963 9.82641 7.4191 9.74707 7.64794 9.74707C7.87678 9.74707 8.09625 9.82641 8.25807 9.96764C8.41988 10.1089 8.51079 10.3004 8.51079 10.5001C8.51079 10.6999 8.41988 10.8914 8.25807 11.0326L6.5394 12.5327C6.45911 12.6022 6.36388 12.6571 6.25918 12.6944C6.15449 12.7318 6.04238 12.7507 5.92929 12.7501Z" fill="#77ACF1"/>
<path d="M17.1005 15.75H20.5378V18C20.5378 18.199 20.4473 18.3896 20.2861 18.5303C20.125 18.671 19.9063 18.75 19.6784 18.75H17.9598C17.7319 18.75 17.5133 18.671 17.3521 18.5303C17.191 18.3896 17.1005 18.199 17.1005 18V15.75Z" fill="#77ACF1"/>
<path d="M21.3971 24H16.241C15.5574 24 14.9016 23.763 14.4182 23.341C13.9348 22.919 13.6631 22.3468 13.6631 21.75V17.25C13.6631 16.6532 13.9348 16.081 14.4182 15.659C14.9016 15.237 15.5574 15 16.241 15H21.3971C22.0808 15 22.7365 15.237 23.22 15.659C23.7035 16.081 23.975 16.6532 23.975 17.25V21.75C23.975 22.3468 23.7035 22.919 23.22 23.341C22.7365 23.763 22.0808 24 21.3971 24ZM16.241 16.5C16.0132 16.5 15.7946 16.579 15.6335 16.7197C15.4723 16.8604 15.3817 17.051 15.3817 17.25V21.75C15.3817 21.949 15.4723 22.1396 15.6335 22.2803C15.7946 22.421 16.0132 22.5 16.241 22.5H21.3971C21.625 22.5 21.8436 22.421 22.0048 22.2803C22.1659 22.1396 22.2564 21.949 22.2564 21.75V17.25C22.2564 17.051 22.1659 16.8604 22.0048 16.7197C21.8436 16.579 21.625 16.5 21.3971 16.5H16.241Z" fill="#04009A"/>
</g>
<defs>
<clipPath id="clip0_6_188">
<rect width="24" height="24" fill="white"/>
</clipPath>
</defs>
</svg>
