<svg width="20" height="20" viewBox="0 0 20 20" fill="none"
    xmlns="http://www.w3.org/2000/svg">
    <path d="M14.2503 3.75H12.8181C12.8181 3.41848 12.6672 3.10054 12.3986 2.86612C12.13 2.6317 11.7658 2.5 11.3859 2.5H10.6698V1.875C10.6698 1.37772 10.4435 0.900805 10.0406 0.549175C9.63768 0.197544 9.09124 0 8.52147 0C7.9517 0 7.40527 0.197544 7.00238 0.549175C6.59949 0.900805 6.37315 1.37772 6.37315 1.875V2.5H5.65704C5.27719 2.5 4.91291 2.6317 4.64431 2.86612C4.37572 3.10054 4.22483 3.41848 4.22483 3.75H2.79261C2.22284 3.75 1.67641 3.94754 1.27352 4.29917C0.870628 4.65081 0.644287 5.12772 0.644287 5.625V18.125C0.644287 18.6223 0.870628 19.0992 1.27352 19.4508C1.67641 19.8025 2.22284 20 2.79261 20H9.23758C9.42751 20 9.60965 19.9342 9.74395 19.8169C9.87824 19.6997 9.95369 19.5408 9.95369 19.375C9.95369 19.2092 9.87824 19.0503 9.74395 18.9331C9.60965 18.8158 9.42751 18.75 9.23758 18.75H2.79261C2.60269 18.75 2.42054 18.6842 2.28625 18.5669C2.15195 18.4497 2.0765 18.2908 2.0765 18.125V5.625C2.0765 5.45924 2.15195 5.30027 2.28625 5.18306C2.42054 5.06585 2.60269 5 2.79261 5H4.22483C4.22483 5.33152 4.37572 5.64946 4.64431 5.88388C4.91291 6.1183 5.27719 6.25 5.65704 6.25H11.3859C11.7658 6.25 12.13 6.1183 12.3986 5.88388C12.6672 5.64946 12.8181 5.33152 12.8181 5H14.2503C14.4403 5 14.6224 5.06585 14.7567 5.18306C14.891 5.30027 14.9664 5.45924 14.9664 5.625V10.625C14.9664 10.7908 15.0419 10.9497 15.1762 11.0669C15.3105 11.1842 15.4926 11.25 15.6826 11.25C15.8725 11.25 16.0546 11.1842 16.1889 11.0669C16.3232 10.9497 16.3987 10.7908 16.3987 10.625V5.625C16.3987 5.12772 16.1723 4.65081 15.7694 4.29917C15.3665 3.94754 14.8201 3.75 14.2503 3.75ZM7.80537 1.875C7.80537 1.70924 7.88081 1.55027 8.01511 1.43306C8.14941 1.31585 8.33155 1.25 8.52147 1.25C8.7114 1.25 8.89354 1.31585 9.02784 1.43306C9.16214 1.55027 9.23758 1.70924 9.23758 1.875V2.5H7.80537V1.875ZM5.65704 5V3.75H11.3859V4.375V5H5.65704Z" fill="#04009A"/>
    <path d="M9.23766 15C9.07204 14.9992 8.91188 14.9482 8.78444 14.8559C8.65699 14.7636 8.57016 14.6356 8.53872 14.4936C8.50728 14.3517 8.53317 14.2047 8.612 14.0775C8.69082 13.9504 8.8177 13.8511 8.97103 13.7964C9.12435 13.7417 9.29465 13.7352 9.45291 13.7778C9.61117 13.8204 9.74762 13.9096 9.83901 14.0301C9.93041 14.1507 9.9711 14.2951 9.95416 14.4389C9.93722 14.5827 9.86369 14.7169 9.7461 14.8187C9.60887 14.9329 9.42727 14.9977 9.23766 15Z" fill="#77ACF1"/>
    <path d="M4.94107 15.6251C4.84682 15.6256 4.7534 15.6098 4.66615 15.5787C4.5789 15.5476 4.49954 15.5018 4.43263 15.4439L3.71652 14.8189C3.58168 14.7012 3.50592 14.5416 3.50592 14.3751C3.50592 14.2087 3.58168 14.0491 3.71652 13.9314C3.85137 13.8137 4.03426 13.7476 4.22496 13.7476C4.41566 13.7476 4.59855 13.8137 4.73339 13.9314L4.94107 14.1189L5.86485 13.3064C5.93161 13.2481 6.01088 13.2019 6.09812 13.1703C6.18535 13.1388 6.27886 13.1226 6.37328 13.1226C6.46771 13.1226 6.56121 13.1388 6.64845 13.1703C6.73568 13.2019 6.81495 13.2481 6.88172 13.3064C6.94849 13.3646 7.00145 13.4338 7.03759 13.51C7.07372 13.5861 7.09232 13.6677 7.09232 13.7501C7.09232 13.8325 7.07372 13.9141 7.03759 13.9903C7.00145 14.0664 6.94849 14.1356 6.88172 14.1939L5.4495 15.4439C5.38259 15.5018 5.30323 15.5476 5.21598 15.5787C5.12874 15.6098 5.03531 15.6256 4.94107 15.6251Z" fill="#77ACF1"/>
    <path d="M12.8181 10H9.23759C9.04767 10 8.86552 9.93415 8.73123 9.81694C8.59693 9.69973 8.52148 9.54076 8.52148 9.375C8.52148 9.20924 8.59693 9.05027 8.73123 8.93306C8.86552 8.81585 9.04767 8.75 9.23759 8.75H12.8181C13.0081 8.75 13.1902 8.81585 13.3245 8.93306C13.4588 9.05027 13.5342 9.20924 13.5342 9.375C13.5342 9.54076 13.4588 9.69973 13.3245 9.81694C13.1902 9.93415 13.0081 10 12.8181 10Z" fill="#77ACF1"/>
    <path d="M4.94107 10.6251C4.84682 10.6256 4.7534 10.6098 4.66615 10.5787C4.5789 10.5476 4.49954 10.5018 4.43263 10.4439L3.71652 9.81887C3.58168 9.70118 3.50592 9.54155 3.50592 9.37512C3.50592 9.20868 3.58168 9.04906 3.71652 8.93137C3.85137 8.81368 4.03426 8.74756 4.22496 8.74756C4.41566 8.74756 4.59855 8.81368 4.73339 8.93137L4.94107 9.11887L5.86485 8.30637C5.99969 8.18868 6.18258 8.12256 6.37328 8.12256C6.56398 8.12256 6.74687 8.18868 6.88172 8.30637C7.01656 8.42406 7.09232 8.58368 7.09232 8.75012C7.09232 8.91655 7.01656 9.07618 6.88172 9.19387L5.4495 10.4439C5.38259 10.5018 5.30323 10.5476 5.21598 10.5787C5.12874 10.6098 5.03531 10.6256 4.94107 10.6251Z" fill="#77ACF1"/>
    <path d="M14.2504 13.125H17.1148V15C17.1148 15.1658 17.0394 15.3247 16.9051 15.4419C16.7708 15.5592 16.5886 15.625 16.3987 15.625H14.9665C14.7766 15.625 14.5944 15.5592 14.4601 15.4419C14.3258 15.3247 14.2504 15.1658 14.2504 15V13.125Z" fill="#77ACF1"/>
    <path d="M17.8309 20H13.5342C12.9645 20 12.418 19.8025 12.0152 19.4508C11.6123 19.0992 11.3859 18.6223 11.3859 18.125V14.375C11.3859 13.8777 11.6123 13.4008 12.0152 13.0492C12.418 12.6975 12.9645 12.5 13.5342 12.5H17.8309C18.4007 12.5 18.9471 12.6975 19.35 13.0492C19.7529 13.4008 19.9792 13.8777 19.9792 14.375V18.125C19.9792 18.6223 19.7529 19.0992 19.35 19.4508C18.9471 19.8025 18.4007 20 17.8309 20ZM13.5342 13.75C13.3443 13.75 13.1622 13.8158 13.0279 13.9331C12.8936 14.0503 12.8181 14.2092 12.8181 14.375V18.125C12.8181 18.2908 12.8936 18.4497 13.0279 18.5669C13.1622 18.6842 13.3443 18.75 13.5342 18.75H17.8309C18.0208 18.75 18.203 18.6842 18.3373 18.5669C18.4716 18.4497 18.547 18.2908 18.547 18.125V14.375C18.547 14.2092 18.4716 14.0503 18.3373 13.9331C18.203 13.8158 18.0208 13.75 17.8309 13.75H13.5342Z" fill="#04009A"/>
</svg>
