<svg width="26" height="24" viewBox="0 0 26 24" fill="none" xmlns="http://www.w3.org/2000/svg">
<g opacity="0.5">
<path d="M18.2604 23.5366H12.8846C11.8358 23.5377 10.7953 23.3506 9.81242 22.9846L5.62476 21.4293C5.39541 21.3418 5.20987 21.1673 5.10858 20.9438C5.00728 20.7201 4.99842 20.4657 5.08392 20.2354C5.16943 20.0054 5.34237 19.8185 5.56511 19.7153C5.78783 19.6121 6.0423 19.6011 6.27307 19.6846L10.4601 21.24C11.2359 21.5283 12.057 21.6754 12.8846 21.6742H18.2604C18.4942 21.6742 18.7184 21.5815 18.8837 21.4161C19.0489 21.2508 19.1419 21.0266 19.1419 20.7927C19.1419 20.5589 19.0489 20.3347 18.8837 20.1693C18.7184 20.004 18.4942 19.9111 18.2604 19.9111C18.0135 19.9111 17.7768 19.813 17.6023 19.6385C17.4277 19.464 17.3297 19.2274 17.3297 18.9806C17.3297 18.7337 17.4277 18.497 17.6023 18.3225C17.7768 18.1479 18.0135 18.0499 18.2604 18.0499H19.5289C19.7628 18.0499 19.987 17.9571 20.1524 17.7917C20.3177 17.6265 20.4106 17.4022 20.4106 17.1684C20.4106 16.9346 20.3177 16.7103 20.1524 16.545C19.987 16.3797 19.7628 16.2868 19.5289 16.2868C19.2823 16.2868 19.0455 16.1888 18.871 16.0142C18.6965 15.8397 18.5984 15.603 18.5984 15.3562C18.5984 15.1094 18.6965 14.8727 18.871 14.6982C19.0455 14.5237 19.2823 14.4256 19.5289 14.4256H20.7972C20.9715 14.4257 21.1419 14.374 21.2869 14.2771C21.432 14.1803 21.5451 14.0426 21.6118 13.8814C21.6785 13.7203 21.696 13.543 21.662 13.372C21.6279 13.2009 21.5439 13.0438 21.4207 12.9205C21.3391 12.8383 21.2419 12.7732 21.1347 12.7289C21.0277 12.6845 20.9129 12.662 20.7972 12.6625C20.5503 12.6625 20.3136 12.5644 20.1391 12.3899C19.9645 12.2154 19.8665 11.9787 19.8665 11.7319C19.8665 11.4851 19.9645 11.2484 20.1391 11.0738C20.3136 10.8993 20.5503 10.8013 20.7972 10.8013H22.0657C22.2399 10.8007 22.41 10.7486 22.5545 10.6515C22.6992 10.5544 22.8116 10.4167 22.878 10.2557C22.9443 10.0947 22.9616 9.91764 22.9275 9.74688C22.8932 9.57614 22.8094 9.41931 22.6861 9.29621C22.6051 9.21429 22.5084 9.14925 22.4019 9.10485C22.2955 9.06045 22.1811 9.03756 22.0657 9.03751H13.2786C13.1166 9.0377 12.9574 8.99565 12.8167 8.91547C12.676 8.83531 12.5587 8.7198 12.4763 8.58039C12.3939 8.44099 12.3493 8.28249 12.3469 8.12055C12.3445 7.95864 12.3845 7.7989 12.4627 7.65713C12.7454 7.08357 12.938 6.4698 13.0335 5.83752C13.2438 4.48071 12.9845 3.25419 12.263 2.19209C12.1701 2.0598 12.0375 1.96049 11.8845 1.9085C11.7314 1.85652 11.5658 1.85455 11.4116 1.90291C11.2573 1.95125 11.1225 2.04741 11.0265 2.17747C10.9305 2.30751 10.8784 2.46473 10.8776 2.62637C10.908 5.81395 9.43523 8.1305 6.61864 9.32661C6.50572 9.37711 6.38385 9.40461 6.26018 9.40745C6.13651 9.41031 6.01351 9.38847 5.89836 9.34323C5.78323 9.29799 5.67827 9.23026 5.58962 9.14397C5.50098 9.05769 5.43043 8.95461 5.38209 8.84073C5.33375 8.72686 5.3086 8.6045 5.30812 8.48079C5.30762 8.35709 5.33181 8.23452 5.37924 8.12028C5.42668 8.00602 5.49642 7.90238 5.58438 7.81539C5.67234 7.72843 5.77677 7.65986 5.89154 7.61371C7.05292 7.11739 7.89912 6.38842 8.40724 5.43737C8.82165 4.66125 9.02762 3.72197 9.01708 2.64559C9.00777 1.46933 9.73302 0.476702 10.8609 0.12556C11.9888 -0.225583 13.1445 0.17395 13.8046 1.14673C15.3376 3.40248 15.0609 5.74383 14.6409 7.17756H22.0657C22.6846 7.17765 23.2853 7.38703 23.7701 7.77166C24.2551 8.15631 24.5955 8.69362 24.7363 9.29626C24.8772 9.8989 24.81 10.5315 24.5458 11.0911C24.2816 11.6508 23.8359 12.1046 23.2812 12.3789C23.5851 13.029 23.6227 13.7722 23.3857 14.4495C23.1487 15.1269 22.656 15.6846 22.0131 16.0033C22.3172 16.6534 22.3548 17.3969 22.1177 18.0744C21.8806 18.7519 21.3876 19.3097 20.7444 19.6282C20.9403 20.0462 21.0276 20.5068 20.9981 20.9674C20.9688 21.4281 20.8236 21.8738 20.5762 22.2636C20.3288 22.6533 19.9872 22.9742 19.5828 23.1967C19.1784 23.4192 18.7244 23.5361 18.2628 23.5366H18.2604Z" fill="black"/>
<path d="M6.2579 22.1588H0.93059C0.683782 22.1588 0.447082 22.0607 0.272563 21.8862C0.0980439 21.7117 0 21.4751 0 21.2283V8.47113C0 8.2243 0.0980439 7.98761 0.272563 7.8131C0.447082 7.63857 0.683782 7.54053 0.93059 7.54053H6.2579C6.50472 7.54053 6.74141 7.63857 6.91593 7.8131C7.09046 7.98761 7.1885 8.2243 7.1885 8.47113V21.2283C7.1885 21.4751 7.09046 21.7117 6.91593 21.8862C6.74141 22.0607 6.50472 22.1588 6.2579 22.1588ZM1.86303 20.2976H5.32731V9.40171H1.86118L1.86303 20.2976Z" fill="black"/>
</g>
</svg>
