<svg width="15" height="14" viewBox="0 0 15 14" fill="none"
    xmlns="http://www.w3.org/2000/svg">
    <g opacity="0.5">
        <path d="M10.6519 13.7297H7.51604C6.90422 13.7303 6.29726 13.6212 5.72393 13.4077L3.28113 12.5004C3.14734 12.4494 3.03911 12.3476 2.98002 12.2172C2.92093 12.0867 2.91576 11.9383 2.96564 11.804C3.01552 11.6698 3.1164 11.5608 3.24633 11.5006C3.37625 11.4404 3.52469 11.434 3.65931 11.4827L6.10175 12.39C6.55429 12.5582 7.03327 12.644 7.51604 12.6433H10.6519C10.7883 12.6433 10.9191 12.5892 11.0155 12.4927C11.1119 12.3963 11.1661 12.2655 11.1661 12.1291C11.1661 11.9927 11.1119 11.8619 11.0155 11.7654C10.9191 11.669 10.7883 11.6148 10.6519 11.6148C10.5079 11.6148 10.3698 11.5576 10.268 11.4558C10.1662 11.354 10.109 11.216 10.109 11.072C10.109 10.928 10.1662 10.7899 10.268 10.6881C10.3698 10.5863 10.5079 10.5291 10.6519 10.5291H11.3919C11.5283 10.5291 11.6591 10.475 11.7556 10.3785C11.852 10.2821 11.9062 10.1513 11.9062 10.0149C11.9062 9.8785 11.852 9.74769 11.7556 9.65125C11.6591 9.55481 11.5283 9.50063 11.3919 9.50063C11.248 9.50063 11.1099 9.44344 11.0081 9.34164C10.9063 9.23983 10.8491 9.10176 10.8491 8.95779C10.8491 8.81382 10.9063 8.67574 11.0081 8.57394C11.1099 8.47214 11.248 8.41494 11.3919 8.41494H12.1317C12.2334 8.41497 12.3328 8.38483 12.4174 8.32832C12.502 8.27182 12.568 8.19149 12.6069 8.09751C12.6458 8.00352 12.656 7.9001 12.6362 7.80032C12.6163 7.70055 12.5673 7.6089 12.4954 7.53698C12.4478 7.48903 12.3911 7.45102 12.3286 7.42517C12.2662 7.39932 12.1992 7.38616 12.1317 7.38644C11.9877 7.38644 11.8496 7.32924 11.7478 7.22744C11.646 7.12564 11.5888 6.98756 11.5888 6.84359C11.5888 6.69962 11.646 6.56155 11.7478 6.45974C11.8496 6.35794 11.9877 6.30075 12.1317 6.30075H12.8717C12.9733 6.30042 13.0725 6.27002 13.1568 6.21337C13.2412 6.15673 13.3068 6.07639 13.3455 5.98248C13.3842 5.88856 13.3943 5.78529 13.3744 5.68568C13.3544 5.58608 13.3055 5.4946 13.2336 5.42279C13.1863 5.375 13.1299 5.33706 13.0678 5.31116C13.0057 5.28526 12.939 5.27191 12.8717 5.27188H7.74584C7.65138 5.27199 7.55852 5.24746 7.47644 5.20069C7.39436 5.15393 7.32591 5.08655 7.27785 5.00523C7.22978 4.92391 7.20377 4.83145 7.20239 4.73699C7.201 4.64254 7.22429 4.54936 7.26995 4.46666C7.43486 4.13208 7.54717 3.77405 7.60289 3.40522C7.72558 2.61375 7.5743 1.89828 7.15342 1.27872C7.09924 1.20155 7.02192 1.14362 6.93264 1.11329C6.84336 1.08297 6.74675 1.08182 6.65677 1.11003C6.5668 1.13823 6.48813 1.19432 6.43214 1.27019C6.37615 1.34605 6.34574 1.43776 6.34531 1.53205C6.36304 3.39147 5.5039 4.74279 3.86089 5.44052C3.79502 5.46998 3.72393 5.48602 3.65179 5.48768C3.57965 5.48935 3.5079 5.47661 3.44073 5.45022C3.37357 5.42383 3.31234 5.38432 3.26063 5.33398C3.20892 5.28365 3.16777 5.22352 3.13957 5.15709C3.11137 5.09067 3.0967 5.01929 3.09642 4.94713C3.09613 4.87497 3.11024 4.80347 3.13791 4.73683C3.16558 4.67018 3.20626 4.60972 3.25757 4.55898C3.30888 4.50825 3.3698 4.46825 3.43675 4.44133C4.11422 4.15181 4.60784 3.72658 4.90424 3.1718C5.14598 2.71906 5.26613 2.17115 5.25998 1.54326C5.25455 0.85711 5.67761 0.278076 6.33553 0.0732432C6.99346 -0.13159 7.66767 0.101471 8.05273 0.668924C8.94698 1.98478 8.78557 3.35057 8.54057 4.18691H12.8717C13.2327 4.18696 13.5831 4.3091 13.8659 4.53347C14.1488 4.75785 14.3474 5.07128 14.4295 5.42282C14.5117 5.77436 14.4725 6.14335 14.3184 6.46981C14.1643 6.79628 13.9043 7.06104 13.5807 7.22105C13.758 7.60023 13.7799 8.03377 13.6417 8.42889C13.5034 8.82402 13.216 9.14934 12.841 9.33524C13.0184 9.71451 13.0403 10.1482 12.902 10.5434C12.7637 10.9386 12.4761 11.264 12.1009 11.4498C12.2152 11.6936 12.2661 11.9623 12.2489 12.231C12.2318 12.4997 12.1471 12.7597 12.0028 12.9871C11.8585 13.2144 11.6592 13.4016 11.4233 13.5314C11.1874 13.6612 10.9226 13.7294 10.6533 13.7297H10.6519Z" fill="black"/>
        <path d="M3.65044 12.926H0.542844C0.398873 12.926 0.260798 12.8688 0.158995 12.767C0.0571923 12.6652 0 12.5272 0 12.3832V4.94153C0 4.79755 0.0571923 4.65948 0.158995 4.55768C0.260798 4.45587 0.398873 4.39868 0.542844 4.39868H3.65044C3.79442 4.39868 3.93249 4.45587 4.03429 4.55768C4.1361 4.65948 4.19329 4.79755 4.19329 4.94153V12.3832C4.19329 12.5272 4.1361 12.6652 4.03429 12.767C3.93249 12.8688 3.79442 12.926 3.65044 12.926ZM1.08677 11.8403H3.1076V5.48437H1.08569L1.08677 11.8403Z" fill="black"/>
    </g>
</svg>
