<svg width="24" height="24" viewBox="0 0 24 24" fill="none"
	xmlns="http://www.w3.org/2000/svg">
	<path d="M19.9846 4.01586C24.3945 8.4264 24.3945 15.5764 19.9846 19.9869C15.5746 24.3968 8.42404 24.3968 4.01356 19.9869C-0.396448 15.5763 -0.396448 8.42634 4.01356 4.01586C8.42404 -0.394611 15.5746 -0.394611 19.9846 4.01586Z" fill="#5D9CEC"/>
	<path d="M11.0826 10.0908C11.3587 10.3663 11.3587 10.8134 11.0826 11.0889C10.8071 11.3644 10.3601 11.3644 10.0846 11.0889C9.80905 10.8134 9.80905 10.3662 10.0846 10.0908C10.36 9.81478 10.8071 9.81478 11.0826 10.0908Z" fill="#7F4545"/>
	<path d="M15.4317 11.6171C14.3953 8.88897 11.6197 7.85154 11.5024 7.8092C11.2352 7.712 10.9354 7.78439 10.7426 7.9932C10.5498 8.202 10.5007 8.50596 10.6185 8.76492C10.6237 8.7763 11.1328 9.91033 11.2347 11.5468C11.3706 13.7296 10.7333 15.673 9.34134 17.3229C9.16402 17.5327 9.12479 17.8263 9.24058 18.0755C9.35636 18.3246 9.60599 18.4838 9.88096 18.4838H13.9224C14.1819 18.4838 14.4201 18.3412 14.5432 18.1137C15.8514 15.6932 16.1501 13.5073 15.4317 11.6171Z" fill="#965353"/>
	<path d="M12.0126 16.9424C7.01078 16.9424 3.79785 19.3246 3.79785 19.3246V19.8032L7.05418 22.0155L10.9524 23.2953H14.1126L18.8044 20.9125L20.1989 19.3246C20.1989 19.3246 17.0145 16.9424 12.0126 16.9424Z" fill="#FFCE54"/>
	<path d="M12.2926 4.25172C11.6378 3.23605 11.9473 1.49624 12.1215 0.91268C12.2063 0.633076 12.1096 0.330712 11.8797 0.151345C11.6491 -0.0280224 11.3318 -0.0471434 11.0816 0.103774C11.0465 0.124946 10.2169 0.631025 9.46062 1.56339C8.43205 2.83239 8.01443 4.2936 8.25268 5.78947C8.6357 8.19237 10.9084 9.09384 11.0051 9.13109C11.0878 9.16311 11.1736 9.17813 11.2583 9.17813C11.5132 9.17813 11.7571 9.03958 11.8822 8.80232C12.0368 8.51075 13.359 5.90473 12.2926 4.25172Z" fill="#8CC153"/>
	<path d="M11.7221 7.94048C11.6704 7.89549 10.4403 6.83643 8.86426 6.83643C8.17167 6.83643 7.52036 7.03697 6.92702 7.43235C5.83745 8.15902 5.18462 9.53554 4.98765 11.5235C4.8497 12.917 4.99229 14.1104 4.9985 14.1606C5.03781 14.4805 5.28903 14.7328 5.60846 14.774C5.63896 14.7781 5.66946 14.7803 5.69943 14.7803C5.98526 14.7803 6.2468 14.6066 6.35484 14.3358C6.35795 14.328 6.66501 13.5646 7.20874 12.7029C7.89253 11.6196 8.6405 10.8655 9.37133 10.5227C10.9235 9.79503 11.7237 9.00471 11.7568 8.9711C11.8948 8.83309 11.9697 8.64393 11.963 8.44855C11.9562 8.25317 11.8694 8.06917 11.7221 7.94048Z" fill="#A0D468"/>
	<path d="M18.8262 5.14838C18.7611 5.09102 17.2016 3.73779 15.178 3.73779C14.5739 3.73779 13.9871 3.85874 13.4331 4.09706C10.9427 5.16856 10.5705 8.26306 10.5561 8.39439C10.5344 8.58825 10.5944 8.78257 10.7215 8.93091C10.8482 9.07977 11.0312 9.1687 11.2265 9.1775C11.2338 9.1775 11.3046 9.18061 11.4209 9.18061C11.7631 9.18061 12.4449 9.15579 13.1716 8.98834C14.1593 8.76087 14.8964 8.34947 15.3611 7.76486C16.4165 6.43803 18.3517 6.3843 18.3693 6.3843C18.6608 6.3802 18.9203 6.19719 19.0216 5.92328C19.1229 5.6497 19.0453 5.34164 18.8262 5.14838Z" fill="#A0D468"/>
	<path d="M15.3715 16.2368C15.5307 15.7623 15.6475 15.2987 15.7209 14.8464C15.6667 14.8329 15.6103 14.8252 15.5519 14.8252H14.4199C14.0301 14.8252 13.7139 15.141 13.7139 15.5308C13.7139 15.9205 14.0301 16.2368 14.4199 16.2368H15.3715Z" fill="#7F4545"/>
	<path d="M12.355 12.0015H11.252C11.2588 12.4837 11.2257 12.953 11.1543 13.41C11.1771 13.4121 11.1998 13.4136 11.2225 13.4136H12.355C12.7447 13.4136 13.0606 13.0973 13.0606 12.7076C13.0605 12.3178 12.7447 12.0015 12.355 12.0015Z" fill="#7F4545"/>
	<path d="M8.25938 19.2666C8.53488 19.5426 8.53488 19.9892 8.25938 20.2642C7.98388 20.5402 7.53682 20.5402 7.26131 20.2642C6.98581 19.9892 6.98581 19.5426 7.26131 19.2666C7.53682 18.9906 7.98388 18.9906 8.25938 19.2666Z" fill="#F6BB42"/>
	<path d="M9.67051 17.8551C9.94654 18.1306 9.94654 18.5772 9.67051 18.8531C9.39501 19.1292 8.94795 19.1292 8.67245 18.8531C8.39694 18.5772 8.39694 18.1306 8.67245 17.8551C8.94795 17.5796 9.39501 17.5796 9.67051 17.8551Z" fill="#F6BB42"/>
	<path d="M11.0826 19.2666C11.3587 19.5426 11.3587 19.9892 11.0826 20.2642C10.8071 20.5402 10.3601 20.5402 10.0846 20.2642C9.80905 19.9892 9.80905 19.5426 10.0846 19.2666C10.3601 18.9906 10.8071 18.9906 11.0826 19.2666Z" fill="#F6BB42"/>
	<path d="M12.4943 17.8551C12.7698 18.1306 12.7698 18.5772 12.4943 18.8531C12.2183 19.1292 11.7717 19.1292 11.4957 18.8531C11.2202 18.5772 11.2202 18.1306 11.4957 17.8551C11.7717 17.5796 12.2183 17.5796 12.4943 17.8551Z" fill="#F6BB42"/>
	<path d="M13.9064 19.2666C14.1819 19.5426 14.1819 19.9892 13.9064 20.2642C13.6304 20.5402 13.1838 20.5402 12.9078 20.2642C12.6323 19.9892 12.6323 19.5426 12.9078 19.2666C13.1838 18.9906 13.6304 18.9906 13.9064 19.2666Z" fill="#F6BB42"/>
	<path d="M15.3174 17.8551C15.5929 18.1306 15.5929 18.5772 15.3174 18.8531C15.0414 19.1292 14.5948 19.1292 14.3193 18.8531C14.0433 18.5772 14.0433 18.1306 14.3193 17.8551C14.5948 17.5796 15.0414 17.5796 15.3174 17.8551Z" fill="#F6BB42"/>
	<path d="M16.7295 19.2666C17.005 19.5426 17.005 19.9892 16.7295 20.2642C16.454 20.5402 16.0069 20.5402 15.7314 20.2642C15.4554 19.9892 15.4554 19.5426 15.7314 19.2666C16.0069 18.9906 16.454 18.9906 16.7295 19.2666Z" fill="#F6BB42"/>
	<path d="M9.67051 20.6779C9.94654 20.9539 9.94654 21.4015 9.67051 21.6765C9.39501 21.9525 8.94795 21.9525 8.67245 21.6765C8.39694 21.4015 8.39694 20.9539 8.67245 20.6779C8.94795 20.4029 9.39501 20.4029 9.67051 20.6779Z" fill="#F6BB42"/>
	<path d="M12.4943 20.6779C12.7698 20.9539 12.7698 21.4015 12.4943 21.6765C12.2183 21.9525 11.7717 21.9525 11.4957 21.6765C11.2202 21.4015 11.2202 20.9539 11.4957 20.6779C11.7717 20.4029 12.2183 20.4029 12.4943 20.6779Z" fill="#F6BB42"/>
	<path d="M15.3174 20.6779C15.5929 20.9539 15.5929 21.4015 15.3174 21.6765C15.0414 21.9525 14.5948 21.9525 14.3193 21.6765C14.0433 21.4015 14.0433 20.9539 14.3193 20.6779C14.5948 20.4029 15.0414 20.4029 15.3174 20.6779Z" fill="#F6BB42"/>
	<path d="M11.9993 24C8.79415 24 5.78077 22.7524 3.51476 20.4853C1.24823 18.2193 0.000529302 15.2064 0 12.0013C0 8.7966 1.24823 5.78321 3.51476 3.51668C5.7813 1.25067 8.79415 0.00244141 11.9993 0.00244141C15.2045 0.00244141 18.2169 1.25067 20.4839 3.51668C22.7499 5.78321 23.9976 8.7966 23.9976 12.0013C23.9976 15.2064 22.7499 18.2193 20.4839 20.4853C18.2169 22.7523 15.2045 24 11.9993 24ZM11.9993 1.41402C9.17148 1.41402 6.51266 2.5155 4.51289 4.51534C2.51306 6.51458 1.41211 9.17339 1.41211 12.0013C1.41211 14.8296 2.51306 17.4884 4.51289 19.4877C6.51273 21.488 9.17102 22.589 11.9993 22.589C14.8272 22.589 17.486 21.488 19.4853 19.4877C21.4856 17.4879 22.5866 14.8296 22.5866 12.0013C22.5866 9.17339 21.4856 6.51458 19.4853 4.51481C17.486 2.5155 14.8271 1.41402 11.9993 1.41402Z" fill="#E6E9ED"/>
</svg>
