<svg width="19" height="16" viewBox="0 0 19 16" fill="none"
    xmlns="http://www.w3.org/2000/svg">
    <path d="M9.81047 16C4.75379 16 0.644287 12.4133 0.644287 8C0.644287 3.58667 4.75379 0 9.81047 0C14.8671 0 18.9766 3.58667 18.9766 8C18.9766 12.4133 14.8671 16 9.81047 16Z" fill="url(#paint0_linear_10_2324)"/>
    <path d="M12.4993 6.73992C12.9805 6.73992 13.3625 6.39992 13.3625 5.98658V5.72659C13.3625 4.71325 12.4153 3.88659 11.2542 3.88659H10.6737V3.08659C10.6737 2.66659 10.2841 2.33325 9.81056 2.33325C9.33698 2.33325 8.94741 2.67325 8.94741 3.08659V3.88659H8.36689C7.20584 3.88659 6.25867 4.71325 6.25867 5.72659V6.91325C6.25867 7.92659 7.20584 8.75325 8.36689 8.75325H11.2542C11.4605 8.75325 11.6285 8.89992 11.6285 9.08658V10.2733C11.6285 10.4533 11.4605 10.6066 11.2542 10.6066H8.36689C8.16065 10.6066 7.9926 10.4599 7.9926 10.2733V10.0133C7.9926 9.59325 7.60304 9.25992 7.12945 9.25992C6.65587 9.25992 6.2663 9.59992 6.2663 10.0133V10.2733C6.2663 11.2866 7.21348 12.1133 8.37453 12.1133H8.95505V12.9133C8.95505 13.3333 9.34461 13.6666 9.8182 13.6666C10.2918 13.6666 10.6813 13.3266 10.6813 12.9133V12.1133H11.2619C12.4229 12.1133 13.3701 11.2866 13.3701 10.2733V9.08658C13.3701 8.07325 12.4229 7.24659 11.2619 7.24659H8.37453C8.16829 7.24659 8.00024 7.09992 8.00024 6.91325V5.72659C8.00024 5.54659 8.16829 5.39325 8.37453 5.39325H11.2619C11.4681 5.39325 11.6362 5.53992 11.6362 5.72659V5.98658C11.6285 6.40658 12.0181 6.73992 12.4993 6.73992Z" fill="white"/>
    <defs>
        <linearGradient id="paint0_linear_10_2324" x1="-0.722773" y1="17.1931" x2="14.0887" y2="0.222577" gradientUnits="userSpaceOnUse">
            <stop stop-color="#F3AA0F"/>
            <stop offset="1" stop-color="#FED46E"/>
        </linearGradient>
    </defs>
</svg>
