<svg width="29" height="24" viewBox="0 0 29 24" fill="none" xmlns="http://www.w3.org/2000/svg">
<g clip-path="url(#clip0_6_227)">
<path d="M14.7156 24C7.13056 24 0.966309 18.62 0.966309 12C0.966309 5.38 7.13056 0 14.7156 0C22.3005 0 28.4648 5.38 28.4648 12C28.4648 18.62 22.3005 24 14.7156 24Z" fill="url(#paint0_linear_6_227)"/>
<path d="M18.7489 10.1098C19.4707 10.1098 20.0437 9.59976 20.0437 8.97975V8.58977C20.0437 7.06976 18.6229 5.82977 16.8812 5.82977H16.0105V4.62977C16.0105 3.99977 15.4261 3.49976 14.7158 3.49976C14.0054 3.49976 13.421 4.00976 13.421 4.62977V5.82977H12.5503C10.8087 5.82977 9.38794 7.06976 9.38794 8.58977V10.3698C9.38794 11.8898 10.8087 13.1298 12.5503 13.1298H16.8812C17.1907 13.1298 17.4427 13.3498 17.4427 13.6298V15.4098C17.4427 15.6798 17.1907 15.9098 16.8812 15.9098H12.5503C12.2409 15.9098 11.9888 15.6897 11.9888 15.4098V15.0198C11.9888 14.3898 11.4045 13.8898 10.6941 13.8898C9.98374 13.8898 9.39938 14.3998 9.39938 15.0198V15.4098C9.39938 16.9298 10.8202 18.1698 12.5617 18.1698H13.4325V19.3698C13.4325 19.9998 14.0168 20.4998 14.7272 20.4998C15.4376 20.4998 16.0219 19.9898 16.0219 19.3698V18.1698H16.8928C18.6343 18.1698 20.0551 16.9298 20.0551 15.4098V13.6298C20.0551 12.1098 18.6343 10.8698 16.8928 10.8698H12.5617C12.2524 10.8698 12.0003 10.6498 12.0003 10.3698V8.58977C12.0003 8.31977 12.2524 8.08976 12.5617 8.08976H16.8928C17.2021 8.08976 17.4542 8.30976 17.4542 8.58977V8.97975C17.4427 9.60975 18.0271 10.1098 18.7489 10.1098Z" fill="white"/>
</g>
<defs>
<linearGradient id="paint0_linear_6_227" x1="-1.08428" y1="25.7896" x2="21.1329" y2="0.333864" gradientUnits="userSpaceOnUse">
<stop stop-color="#F3AA0F"/>
<stop offset="1" stop-color="#FED46E"/>
</linearGradient>
<clipPath id="clip0_6_227">
<rect width="28.5" height="24" fill="white"/>
</clipPath>
</defs>
</svg>
