<svg width="64" height="24" viewBox="0 0 64 24" fill="none" xmlns="http://www.w3.org/2000/svg">
<g clip-path="url(#clip0_6_230)">
<path fill-rule="evenodd" clip-rule="evenodd" d="M25.8797 1.64169L22.6205 21.6713H27.8349L31.0945 1.64169H25.8797ZM18.2333 1.64169L13.2617 15.4179L12.6736 12.4514L12.5445 11.7875C11.9428 10.4908 10.5493 8.02624 7.9179 5.92296C7.13994 5.30128 6.35578 4.77068 5.59766 4.31748L10.116 21.6713H15.549L23.8456 1.64169H18.2333ZM38.5842 7.20232C38.5842 4.9378 43.6624 5.22876 45.894 6.4584L46.638 2.15657C46.638 2.15657 44.3416 1.2832 41.948 1.2832C39.3601 1.2832 33.215 2.41491 33.215 7.91388C33.215 13.0891 40.4276 13.1534 40.4276 15.8704C40.4276 18.5875 33.9586 18.1019 31.8238 16.3879L31.0479 20.8844C31.0479 20.8844 33.3762 22.0161 36.9345 22.0161C40.4924 22.0161 45.8616 20.1728 45.8616 15.1589C45.8616 9.95132 38.5842 9.46628 38.5842 7.20232ZM59.8628 1.64169H55.6704C53.7344 1.64169 53.2628 3.13438 53.2628 3.13438L45.4864 21.6713H50.9216L52.0088 18.6964H58.638L59.2496 21.6713H64.0376L59.8628 1.64169ZM53.5116 14.5861L56.2516 7.09052L57.7932 14.5861H53.5116Z" fill="#005BAC"/>
<path fill-rule="evenodd" clip-rule="evenodd" d="M10.9897 3.52841C10.9897 3.52841 10.7739 1.7207 8.46964 1.7207H0.0980592L0 2.06044C0 2.06044 4.02404 2.88074 7.8846 5.95404C11.5739 8.8914 12.7774 12.5529 12.7774 12.5529L10.9897 3.52841Z" fill="#F6AC1D"/>
</g>
<defs>
<clipPath id="clip0_6_230">
<rect width="64" height="24" fill="white"/>
</clipPath>
</defs>
</svg>
