<svg width="16" height="6" viewBox="0 0 16 6" fill="none"
    xmlns="http://www.w3.org/2000/svg">
    <path fill-rule="evenodd" clip-rule="evenodd" d="M6.46992 0.410422L5.65513 5.41783H6.95872L7.77361 0.410422H6.46992ZM4.55832 0.410422L3.31542 3.85447L3.1684 3.11285L3.16851 3.11309L3.13611 2.94687C2.98569 2.62269 2.63731 2.00656 1.97947 1.48074C1.78498 1.32532 1.58894 1.19267 1.39941 1.07937L2.529 5.41783H3.88725L5.96139 0.410422H4.55832ZM9.64604 1.80058C9.64604 1.23445 10.9156 1.30719 11.4735 1.6146L11.6595 0.539142C11.6595 0.539142 11.0854 0.320801 10.487 0.320801C9.84001 0.320801 8.30374 0.603728 8.30374 1.97847C8.30374 3.27227 10.1069 3.28834 10.1069 3.9676C10.1069 4.64687 8.48964 4.52547 7.95594 4.09698L7.76198 5.22109C7.76198 5.22109 8.34405 5.50402 9.23363 5.50402C10.1231 5.50402 11.4654 5.0432 11.4654 3.78972C11.4654 2.48783 9.64604 2.36657 9.64604 1.80058ZM14.9657 0.410422H13.9176C13.4336 0.410422 13.3157 0.783596 13.3157 0.783596L11.3716 5.41783H12.7304L13.0022 4.67409H14.6595L14.8124 5.41783H16.0094L14.9657 0.410422ZM13.3779 3.64652L14.0629 1.77263L14.4483 3.64652H13.3779Z" fill="#005BAC"/>
    <path fill-rule="evenodd" clip-rule="evenodd" d="M2.74743 0.882102C2.74743 0.882102 2.69347 0.430176 2.11741 0.430176H0.0245148L0 0.515109C0 0.515109 1.00601 0.720186 1.97115 1.48851C2.89348 2.22285 3.19436 3.13823 3.19436 3.13823L2.74743 0.882102Z" fill="#F6AC1D"/>
</svg>
